<svg xmlns="http://www.w3.org/2000/svg" version="1.1" width="600px" height="600px" viewBox="0 0 200 200" style="overflow:hidden!important;"><defs id="SvgjsDefs2848"></defs><g id="svga-group-wrapper"><g id="svga-group-backs-single"><path id="SvgjsPath3085" d="M0 0h200v200H0V0z" fill="#ecf0f1" stroke-width="none" opacity="1" stroke="none"></path></g><g id="svga-group-humanwrap-move" transform="matrix(1,0,0,1,0,0)"><g id="svga-group-humanwrap" transform="matrix(1,0,0,1,0,0)"><g id="svga-group-hair-back-move" transform="matrix(1,0,0,1,0,0)"><g id="svga-group-hair-back" transform="matrix(1,0,0,1,0,0)"></g></g><g id="svga-group-humanbody-back"><path id="SvgjsPath3152" d="m168.5 219.5-1.7-21.5s.7-9-8.8-15.3-23.4-10.1-29.5-14.2c-6.1-4.1-9.2-4.5-9-16.9s.9-40.3.9-40.3H79.6s.7 27.9.9 40.3c.2 12.4-2.9 12.8-9 16.9-6.1 4.1-20 7.9-29.5 14.2S33.2 198 33.2 198l-1.6 21.5h136.9z" fill="#f3d4cf" stroke-width="none" opacity="1" stroke="none"></path></g><g id="svga-group-chinshadow-single"><path id="SvgjsPath3148" d="M80.4 155.4c5.9 5.8 12.6 9.3 19.6 9.3s13.7-3.5 19.6-9.3c-.1-1.1-.1-2.4-.1-3.8.2-12.4.9-40.3.9-40.3H79.6s.7 27.9.9 40.3c0 1.4 0 2.7-.1 3.8z" fill="#d4958a" stroke-width="none" opacity="0.65" stroke="none"></path></g><g id="svga-group-humanbody-front"><path id="SvgjsPath3153" d="M73.8 175.9c5.1 2.9 11.8 5.2 17.6 5.7.4 0 .4-.6.1-.7-2.8-1.1-5.9-1.7-8.8-2.6-2.9-.9-5.8-2-8.8-2.7-.1-.1-.3.2-.1.3zm35.2 6.2c5.3-.6 11.3-3 15.9-5.8.3-.2.1-.6-.2-.5-2.6.9-5.2 2-7.8 2.9-2.6.9-5.4 1.5-8 2.5-.5.1-.5.9.1.9z" fill="#d4958a" stroke-width="none" opacity="1" stroke="none"></path><path id="SvgjsPath3154" d="m168.4 219.4-2.1-21.4c0-2.2-.5-4.5-1.5-6.6-.9-2.1-2.3-3.9-3.9-5.5s-3.5-2.8-5.5-4c-2-1.2-4.1-2.2-6.2-3.1-4.2-1.9-8.6-3.6-12.9-5.4-2.2-.9-4.3-1.9-6.4-3-1.1-.6-2.1-1.2-3-1.9-1-.6-2-1.2-3-1.9s-2-1.5-2.8-2.6c-.8-1-1.3-2.2-1.7-3.4-.7-2.4-.8-4.8-.8-7.2 0-4.7.2-9.4.3-14.1.2-9.4.6-18.7.9-28l.6.6-20.4-.2-20.4-.1.3-.3.7 28c.1 4.7.3 9.3.4 14 0 2.4-.1 4.7-.8 7.1-.3 1.2-.9 2.3-1.6 3.3-.8 1-1.7 1.8-2.7 2.5s-2 1.3-2.9 2c-.9.6-1.9 1.3-3 1.9-2.1 1.2-4.2 2.1-6.4 3.1-4.3 1.9-8.6 3.6-12.8 5.6-2.1 1-4.2 2.1-6.1 3.2-2 1.2-3.8 2.4-5.4 4-1.6 1.6-2.9 3.4-3.8 5.4-.4 1-.8 2.1-1 3.1-.2 1.1-.4 2.2-.3 3.2v.2l-1.5 21.5-1-1.1 34 .1c11.3 0 22.7.1 34.1.2l34.2.3 34.4.5zm.2.2-34 .4-34.2.3c-11.4.1-22.9.2-34.4.2l-34.4.1h-1.1l.1-1.1 1.7-21.5v.1c-.1-5.1 2.2-9.8 5.7-13.3 1.7-1.7 3.8-3.1 5.8-4.3 2-1.2 4.2-2.2 6.3-3.2 4.3-2 8.7-3.7 13-5.4 2.1-.9 4.3-1.8 6.3-2.9 1-.5 1.9-1.1 3-1.8 1-.6 2-1.2 2.9-1.9.9-.6 1.8-1.4 2.4-2.2.7-.9 1.2-1.9 1.5-2.9.6-2.1.8-4.5.8-6.8 0-4.6-.1-9.3-.2-14l-.6-28v-.3h.3l20.4-.1 20.4-.2h.6v.6c-.1 9.3-.2 18.7-.4 28-.1 4.7-.2 9.4-.2 14 .1 2.3.2 4.6.8 6.7.3 1.1.8 2 1.4 2.9.6.8 1.4 1.6 2.4 2.2.9.6 1.9 1.3 2.9 1.9 1 .7 1.9 1.3 2.9 1.8 2 1.1 4.1 2.1 6.3 3 4.3 1.8 8.6 3.6 12.9 5.6 2.1 1 4.2 2.1 6.2 3.3 2 1.2 4 2.6 5.7 4.3 3.4 3.4 5.6 8.1 5.4 13v-.1l1.4 21.6zm-112.8-.4 1.9-13.8.1 13.8h-2zm88.6 0-1.9-13.8-.1 13.8h2z" fill="#c5796d" stroke-width="none" opacity="1" stroke="none"></path></g><g id="svga-group-clothes-single"><path id="SvgjsPath6821" d="M27.5 220c-1.4-8.2 1.3-23.2 1.8-26s3.9-6.8 3.9-6.8 1.2-2.6 5.1-6c4-3.5 15.4-6.4 15.9-7.6.5-1.2 2.7-2.3 2.7-2.3-1-4.2 2.1-7.8 3.6-11.4 1.5-3.6 4.9-5.6 4.9-5.6 3.7-6.2 12.5-7 12.5-7s.6 5.3.6 7.8-.1 6.1-.8 7.7-.8 2.3-.8 2.3.2 3.2 5.8 7.4 7.2 6.9 12.5 9.2c3.7 1.7 6.7 5.2 6.7 5.2s0-2.6 3.1-5.2c4.5-3.8 6.9-5 12.5-9.2s5.8-7.4 5.8-7.4-.1-1-.5-2.7c-.4-2-.3-4.4-.3-6.9s.8-8.4.8-8.4 7.7 1 11.4 7.2c0 0 3.3 2.1 4.9 5.6s4.6 7.2 3.6 11.4c0 0 2.2 1.2 2.7 2.3.5 1.2 11.9 4.1 15.9 7.6s5.1 6 5.1 6 3.3 4 3.9 6.8c.5 2.8 3.2 17.8 1.8 26" fill="#335529" stroke-width="none" opacity="1" stroke="none"></path><path id="SvgjsPath6822" d="M173.2 211.5c-.1-2.9-.2-5.7-.6-8.5s-.7-5.6-1.1-8.5c-.1-.7-.3-1.5-.6-2.2-.3-.7-.6-1.4-1-2-.7-1.2-1.5-2.4-2.4-3.5-.6-1.2-1.3-2.1-2.1-3.1s-1.7-1.9-2.6-2.7c-.9-.9-2-1.6-3.1-2.2-1.1-.6-2.2-1.1-3.4-1.6-2.3-1-4.6-1.9-6.8-2.8-.6-.2-1.1-.4-1.7-.7-.3-.1-.5-.2-.8-.4-.1-.1-.2-.1-.3-.2 0 0-.1 0-.1-.1l-.1-.1c-.1-.1-.1-.2-.2-.3-.1-.2-.2-.3-.4-.5-.3-.3-.5-.5-.8-.7-.3-.3-.7-.5-1-.7.2-1.6 0-3.3-.6-4.7-.6-1.7-1.4-3.1-2.2-4.6-.4-.7-.7-1.4-1.1-2.2-.4-.8-.8-1.6-1.4-2.3-1-1.4-2.2-2.5-3.6-3.5-1.3-2.1-3.1-3.8-5.1-5-1.1-.6-2.2-1.1-3.3-1.6-1.2-.4-2.3-.7-3.6-.9-.5-.1-2.9-.2-2.9-.2-1.5 11 1.8 18.5 1.9 19.2 0 .1-.1.4-.2.6v.1l-.3.6v.1c0 .1 0 .1-.1.2-.3.5-.6.9-.9 1.4-.7 1-1.6 1.9-2.6 2.7-.1.1-.3.2-.4.3-.2.2-.5.4-.7.6-.7.5-1.5 1.1-2.2 1.6-.9.7-1.8 1.4-2.8 2.2 0 0-.1 0-.1.1-2.1 1.5-4.3 3-6.3 4.7-1.7 1.4-3.7 3.1-4.3 5.6-1.8-1.8-3.8-3.3-6.1-4.4-2.6-1.1-4.9-2.6-7-4.5-1.1-.9-2.1-1.9-3.2-2.8-1.1-.9-2.2-1.8-3.3-2.6-1.1-.9-2.1-1.8-3-2.9-.3-.4-.6-.8-.8-1.2-.2-.4-.2-.8-.3-1.2-.1-.4-.2-.9-.2-1.2v-.1l-.1-.2c-.1-.1-.1-.3-.2-.5.1-.4.3-.8.5-1.1 2.3-1.9 2.5-9.2 2.4-10.8-.1-1.5-.2-5.8-.2-5.8-1.3.1-4.7.6-5.9.9-1.2.4-2.4.8-3.5 1.4-2.2 1.1-4.3 2.7-5.7 4.9-1.4.9-2.7 2.1-3.7 3.4-.5.7-1 1.4-1.4 2.3-.3.8-.7 1.4-1.1 2.2-.8 1.4-1.6 2.9-2.2 4.6-.5 1.4-.8 3.1-.6 4.7-.4.2-.7.5-1.1.8-.3.2-.5.4-.8.7-.1.1-.2.3-.4.4-.1.1-.1.2-.2.3v.1l-.1.1c-.1.1-.2.1-.3.2-.2.1-.5.2-.8.4-.5.2-1.1.5-1.7.7-2.3.9-4.6 1.7-6.8 2.7-1.1.5-2.3 1-3.4 1.6-1.1.6-2.2 1.4-3.1 2.2-.9.8-1.8 1.7-2.6 2.7-.8.9-1.5 1.9-2.1 3.1-.9 1.1-1.7 2.3-2.4 3.5-.4.6-.7 1.3-1 2-.3.7-.5 1.5-.6 2.2-.5 2.8-.9 5.6-1.2 8.5s-.5 5.7-.6 8.5c0 2.9 0 5.7.6 8.5h.2c-.4-2.8-.3-5.6-.1-8.5.2-2.8.5-5.6.9-8.4.4-2.8.9-5.6 1.4-8.4.1-.7.3-1.3.5-1.9.3-.6.6-1.2 1-1.8.7-1.2 1.5-2.3 2.4-3.4l.1-.1v-.1c.5-.9 1.2-1.9 2-2.8.8-.9 1.6-1.7 2.5-2.5 1.7-1.6 3.9-2.6 6.1-3.5 2.2-.9 4.5-1.8 6.8-2.6.6-.2 1.2-.4 1.7-.7.1 0 .2-.1.2-.1-.4.8-.8 1.6-1.1 2.4-.4 1.3-.7 2.7-.3 4.2.3.8.7 1.3 1.2 1.8s1 1 1.5 1.4c1.1.9 2.2 1.6 3.3 2.3 2.3 1.4 4.7 2.6 7.1 3.7 1.2.5 2.4 1.1 3.7 1.5 1.3.4 2.7.7 4 .9 2.7.4 5.3.5 8 .6 2.7.1 5.3.1 7.9.1 1.3 0 2.6.1 3.9.2l3.9.4c.6.1 1.2.1 1.7.2-2.1 2.1-4.3 5.2-5.4 9.6-1.4 6 .7 7.6 1.7 8 .3.1.7.2 1.1.2 1.4 0 2.9-1 3.8-2.6.7-1.2 1.4-3.5 2-6.1 0 7 .7 12.8.8 13.2.1.5.5.9 1 .9h.1c.6-.1.9-.6.9-1.1 0-.1-1.1-9.2-.6-18.3 1.5 6.3 3.9 15.4 6.7 18.8.3.4 1 .5 1.4.1s.5-1 .1-1.4c-2.9-3.5-5.6-14.9-6.9-20.7.1 0 .1-.1.2-.1 2.2 3.6 3.5 8.3 4.4 11.7.5 1.8.8 3.2 1.2 4.1.7 1.6 2.4 2.6 4.1 2.6.5 0 1.1-.1 1.5-.3 1-.4 4-2.3 1.2-9.2-2-4.9-5.4-8.3-8.4-10.5.3-.1.7-.3 1.1-.4 1.9-.6 3.9-1.3 5.8-1.4.4 0 1.1-.1 1.6-.2l1.5-.3c1-.2 2-.5 3-.8 2-.6 3.9-1.3 5.8-2 3.8-1.5 7.6-3.2 11.2-5.2 1.8-1 3.6-2.3 4.9-4 .6-.9 1.2-1.8 1.5-2.8.2-.6.4-1.2.4-1.8.1.1.2.1.3.2.3.1.6.3.9.4.6.2 1.2.5 1.7.7 2.3.9 4.6 1.7 6.8 2.6 2.2.9 4.4 1.9 6.1 3.5.9.8 1.7 1.6 2.5 2.5.8.9 1.5 1.9 2 2.8v.1l.1.1c.9 1 1.7 2.2 2.4 3.3.4.6.7 1.2.9 1.8.3.6.4 1.2.6 1.9.5 2.8 1 5.6 1.4 8.4.4 2.8.7 5.6.9 8.4.2 2.8.2 5.7-.1 8.5h.2c1.1-2.9 1.2-5.8 1.2-8.6zm-49.2-48c-.1-.3-.1-.7-.2-1-.2-.8-.2-1.4-.3-2.1-.1-1.4-.1-2.9-.1-4.4 0-1.5.1-2.9.3-4.4 0-.2.1-.5.1-.7.7 1 1.2 2.1 1.5 3.2.3 1.4.4 2.8.3 4.2-.1 1.4-.4 2.8-.9 4.1-.2.4-.5.8-.7 1.1zm-46.2-2.9c-.1.7-.2 1.4-.6 2.1-.1.1-.1.3-.2.4-.2-.6-.3-1.2-.4-1.7-.2-1.1-.4-2.2-.4-3.3-.1-1.1 0-2.1.4-3.1.3-.8.7-1.6 1.4-2.4.1 1.2.2 2.4.1 3.6-.1 1.4-.1 2.9-.3 4.4zm19.7 48.6c-.7 1.2-1.8 1.7-2.4 1.5-.8-.3-1.3-2.2-.5-5.7 1.2-4.8 4-8 6.1-9.8h.3c-.8 4.8-2.3 12-3.5 14zm4.6-17.4c-.2.1-1.5.8-3.1 2.3-.8-.1-1.7-.3-2.5-.4-2.6-.4-5.2-1-7.9-1.1-5.3-.4-10.6-.4-15.6-1.2-1.3-.2-2.5-.5-3.7-.8-1.2-.4-2.4-.9-3.6-1.4-2.4-1-4.8-2.1-7.1-3.3-1.2-.6-2.2-1.3-3.3-2-1-.7-2.1-1.5-2.6-2.5-.4-1.1-.3-2.4 0-3.6.2-1 .5-1.9 1-2.9 0 0 .1-.1.2-.1.2-.1.3-.2.5-.3.2-.1.3-.2.6-.5l.2-.3s0-.1.1-.1c0-.1.1-.2.2-.3.2-.2.4-.4.6-.5s.5-.3.7-.5v1.3c.1.8.4 1.6.7 2.4.7 1.5 1.7 2.9 2.7 4.2 1.1 1.2 2.3 2.4 3.6 3.4.7.5 1.3 1 2 1.5.7.4 1.4.9 2.1 1.3-1.2-1.2-2.4-2.3-3.5-3.4-1.2-1.1-2.3-2.3-3.3-3.5-1-1.2-2-2.5-2.8-3.9-.4-.7-.7-1.4-1-2.2-.1-.4-.2-.9-.3-1.3.2-.1.3-.2.4-.3.3-.2.5-.6.4-1-.3-1.4-.2-2.9.3-4.4.5-1.5 1.3-2.9 2.1-4.4.4-.7.8-1.5 1.1-2.3.3-.7.7-1.4 1.1-2 .4-.6.9-1.1 1.4-1.7-.7 1.5-1 3.1-1 4.8.1 2.6 1.3 5 2.6 7.1 1.3 2.2 2.7 4.3 4.4 6.2 1.7 1.9 3.8 3.5 6 4.8 2.2 1.3 4.6 2.2 6.9 3.1 2.4.9 4.8 1.7 7.2 2.4 2.4.8 4.8 1.5 7 2.7 2 1 3.8 2.3 5.4 3.9 0 .5-.1.6-.2.8zm13.5 13.3c1.4 3.4 1.3 6-.2 6.6-1.1.4-2.6-.2-3.1-1.2-.3-.8-.7-2.2-1.2-3.9-.9-3.4-2.1-8-4.3-11.8 2.9 1.8 6.7 5.2 8.8 10.3zm27.5-26.3c-1.3 1.4-3 2.4-4.8 3.3-3.6 1.8-7.4 3.3-11.2 4.8l-5.7 2.3c-.9.4-1.9.7-2.8 1.1-.5.2-.9.3-1.4.4-.5.1-.9.2-1.4.3-2.1.4-4 1.1-5.9 1.8l-1.5.6c-2.3-1.6-4.3-2.3-4.8-2.3-.2 0-.3.1-.5.1h-.2c-.2 0-.4.1-.6.2-1.5-1.6-3.3-3.1-5.2-4.2-2.2-1.3-4.6-2.1-7-3-4.7-1.7-9.5-3.2-13.8-5.7-2.1-1.2-4.1-2.7-5.8-4.5-1.7-1.8-3.1-3.9-4.4-6-.7-1.1-1.3-2.1-1.8-3.2s-.8-2.3-1-3.5c-.2-1.7.1-3.5.8-5.1.5-.4 1-.9 1.5-1.2h.1l.2-.2c1.2-2 3-3.6 5.1-4.7 1.1-.6 2.2-1 3.3-1.4 1-.3 2-.6 3-.7.2 1.3.3 2.6.4 4v.6c-1 .4-1.9 1.2-2.5 2.1-.7 1.1-1.1 2.4-1.1 3.7-.1 1.3.1 2.5.3 3.7.3 1.2.7 2.4 1.3 3.5.1.4.2.8.4 1.2.2.4.5.9.7 1.3.3.4.6.8 1 1.1l.9.6c.8.9 1.6 1.7 2.4 2.4 1.1.9 2.2 1.7 3.3 2.6 1.1.9 2.1 1.8 3.2 2.8 1.1.9 2.2 1.9 3.3 2.7 1.2.8 2.5 1.5 3.7 2.1 2.4 1.2 4.6 3.1 6.4 5.1.1.1.2.2.4.2.3 0 .6-.2.6-.5.1-1.1.7-2.3 1.4-3.2.7-1 1.8-1.7 2.8-2.5 2-1.6 4.2-3 6.4-4.5 1.1-.7 2.2-1.5 3.2-2.3.3-.2.7-.5 1-.7l1-.6c.8-.5 1.6-1 2.3-1.7.7-.6 1.4-1.3 2-2.1.3-.4.6-.8.8-1.3.1-.2.2-.5.3-.8 0-.1.1-.3.1-.4l.6-.6c.3-.3.6-.6.8-1 .5-.7.9-1.4 1.2-2.2.6-1.5.8-3.1.7-4.7 0-1.6-.3-3.1-.9-4.6-.5-1.2-1.3-2.3-2.3-3.1l.3-2.4 2.1.6c1 .4 2 .9 3 1.4 1.9 1.1 3.5 2.6 4.6 4.4l.3.3c.2.1.4.3.6.5 0 1.6-.2 3.1-.7 4.6-.6 1.9-1.6 3.7-2.8 5.2-2.5 3.1-5.7 5.6-9.2 7.6-.9.5-1.8.9-2.7 1.3-.9.4-1.9.9-2.8 1.4-1.8 1-3.6 2-5.2 3.2s-3.3 2.4-4.8 3.8c-.8.7-1.5 1.4-2.1 2.2-.6.8-1.3 1.6-1.5 2.6.3-1 1.1-1.7 1.7-2.5.7-.7 1.5-1.4 2.3-2 1.6-1.3 3.2-2.4 4.9-3.5 1.7-1.1 3.4-2.1 5.2-3 .9-.5 1.8-.9 2.7-1.3.9-.4 1.9-.8 2.8-1.3 1.8-1 3.5-2.2 5.1-3.5 1.6-1.3 3-2.8 4.3-4.4 2.2-2.9 3.4-6.6 3.1-10.2.9.7 1.8 1.6 2.5 2.6.4.6.9 1.3 1.1 1.9.3.8.7 1.6 1.1 2.3.8 1.5 1.6 2.9 2.1 4.3s.7 2.9.4 4.3c-.1.3 0 .6.2.9-1.1.9-2.2 1.7-3.4 2.4-1.4.9-3 1.7-4.6 2.3-1.6.6-3.2 1.1-4.9 1.6l-4.9 1.4c-1.7.5-3.3 1-4.9 1.6-.8.3-1.6.7-2.4 1.2-.4.2-.8.5-1.1.8-.3.3-.6.6-.9.8-2.7 2.1-5.8 3.6-8.4 5.9.3-.3.7-.5 1.1-.7l1.1-.6 2.3-1.2c1.5-.9 3-1.7 4.4-2.7.4-.2.7-.5 1.1-.8.3-.3.6-.5 1-.7.7-.4 1.5-.7 2.3-1 1.6-.6 3.2-1.1 4.9-1.6l4.9-1.5c1.6-.5 3.3-1 4.9-1.8 2.9-1.3 5.5-3.1 7.7-5.3l.2.2c.5.2 1 .6 1.4.9.2.2.4.3.6.5l.2.2.1.1.2.3c.2.3.4.4.5.5-.3 1.2-1.2 2.7-2.3 3.8zM42 203.8c-.7-2.5-1.7-5-2.9-7.3s-2.5-4.6-4.1-6.6c.9 2.5 1.8 4.9 2.6 7.3.9 2.4 1.7 4.8 2.4 7.2.3 1.2.6 2.4.9 3.7l.8 3.7c.5 2.5 1.1 5 1.7 7.5.2-2.6.1-5.2-.2-7.8-.1-2.6-.5-5.1-1.2-7.7zm117.5-7.6c-.7 1.1-1.2 2.3-1.7 3.5-.5 1.2-.8 2.4-1.1 3.7-.5 2.5-.7 5-.8 7.5 0 2.5.1 5 .5 7.5.4-2.5.7-4.9 1-7.4.4-2.4.7-4.9 1.2-7.2.5-2.4 1.1-4.6 2.2-6.8 1-2.1 2.4-4.2 4.1-6-2.2 1.1-4 3.1-5.4 5.2z" fill="#18360f" stroke-width="none" opacity="1" stroke="none"></path><path id="SvgjsPath6823" d="M107.5 181.3c6.7-4 15.6-7.9 20-14.8 3.2-5 3.7-12.1-1-16.2-.3-.2-.8.1-.5.4 10.5 14.7-10.3 22.7-18.8 30.1-.3.2 0 .6.3.5zm30.2-23.2c-.1-.5-1-.5-1 0-1.4 8.9-6.9 13.3-14.7 17.2-5.8 2.8-11.3 5.4-15.1 10.8-.3.5.4 1.1.8.6 6.5-6.6 15.7-8.5 22.9-14 4.4-3.3 8.5-8.8 7.1-14.6zm-57 16.5c-8.2-5.3-14.7-16.3-5.2-24 .6-.5-.2-1.2-.7-.9-8 3.7-7.1 14-2.6 20.1 6.7 9 18.7 11.6 27.6 17.5.2.1.3-.1.2-.2-5.5-5.8-12.8-8.3-19.3-12.5zm15.8 15.5c-6.5-3.6-14.1-4.6-20.6-8.6-7-4.3-11.7-10.2-13.7-18.2-.1-.4-.7-.3-.6.1.4 7.5 5.4 14.1 11.2 18.5 6.3 4.7 15.6 8.9 23.5 9.4.5 0 .8-.9.2-1.2zm47.1-16.2c-6.3 8.2-15.4 10.1-25 12.1-.4.1-.2.6.2.5 9.3-1.2 20.3-3.6 25.5-12.3.2-.3-.4-.6-.7-.3zm26 24.6c-.5-3.4-.7-8.6-4.2-10.2v-.4c-2.4-6.2-11.4-11.6-18-11.3-.6 0-.7.9-.1 1.1 3.2 1.3 6.4 2.1 9.4 4 2.7 1.8 4.5 4.2 6.7 6.4-8.5 4.9-12.6 16.1-9.5 25.4.1.4.9.4.8-.1-1.2-10.3 2-17.9 9.7-24.3 5.9 7 3.7 19.7 4.8 28.2.1.6 1 .8 1.1.1.9-6.2.2-12.7-.7-18.9zM46.7 177.6c-5.3.9-9.7 5.4-11.9 10.1-.2.5.4.9.7.4 2.9-4.6 6.9-7.1 11.4-9.9.3-.2.1-.6-.2-.6zM33 191.9c-2.4 6.3-3.5 13.7-3.3 20.4 0 .5.8.5.8 0 .8-6.9 1.7-13.5 2.9-20.3.1-.3-.3-.4-.4-.1z" fill="#44643a" stroke-width="none" opacity="1" stroke="none"></path></g><g id="svga-group-head" transform="matrix(1,0,0,1,0,0)"><g id="svga-group-ears-left-move" transform="matrix(1,0,0,1,0,0)"><g id="svga-group-ears-left" transform="matrix(1,0,0,1,0,0)"><path id="SvgjsPath3102" d="M64.2 96.3c-.2-.3-3.1-4-5.5-6.3-2.5-2.3-3.2-2.2-4.4-.8s-2.7 8.5-2.3 11.7 3.3 8.2 4.9 11c1.6 2.8 3.1 6.3 4.8 6 1.8-.3 4.2-4.3 5.3-7.3 1.2-3 .6-10.3-2.8-14.3z" fill="#f3d4cf" stroke-width="none" opacity="1" stroke="none"></path><path id="SvgjsPath3103" d="M67.9 104.8c.1.8.2 1.6.2 2.4s0 1.6-.2 2.4l-.3 1.2c-.1.4-.3.7-.4 1-.3.7-.6 1.3-.9 2-.7 1.2-1.4 2.4-2.4 3.4-.5.5-1 1-1.7 1.2-.3.1-.8.1-1.2 0-.4-.2-.7-.4-1-.7-1.2-1.2-1.8-2.6-2.5-4s-1.4-2.7-2.1-4.1c-.7-1.4-1.4-2.8-2-4.2-.3-.7-.6-1.4-.9-2.2-.3-.7-.5-1.5-.6-2.3-.2-1.6 0-3.2.1-4.7.2-1.5.4-3 .8-4.5.2-.7.4-1.5.7-2.2.1-.2.2-.3.3-.5s.2-.4.3-.5c.2-.3.5-.5.8-.7s.7-.3 1.1-.3c.4.1.7.2 1.1.4.6.4 1.1.9 1.7 1.4 2 2.1 3.7 4.5 5.6 6.8 1.8 2.5 2.9 5.6 3.5 8.7zm-9.6-14.6c-1-.8-2.2-1.7-2.9-1.2-.2.1-.4.3-.6.6-.1.1-.2.2-.2.3-.1.1-.1.3-.2.4-.3.6-.5 1.2-.7 1.9-.4 1.3-.8 2.8-1.1 4.2-.3 1.4-.5 3-.4 4.4.1.7.3 1.5.5 2.2l.9 2.1c.6 1.4 1.4 2.7 2.2 4s1.6 2.6 2.3 3.9c.4.7.7 1.3 1.1 1.9.4.6.8 1.2 1.2 1.6s.8.6 1.2.4.9-.5 1.3-1c.8-.9 1.5-2 2.2-3.2l.9-1.8c.1-.3.3-.6.4-.9l.2-.4c0-.2.1-.3.1-.5.3-1.3.3-2.8.3-4.3-.1-1.5-.3-3-.8-4.5s-1.2-2.9-2.1-4c-1.7-2.2-3.7-4.4-5.8-6.1z" fill="#e4b3ab" stroke-width="none" opacity="1" stroke="none"></path><path id="SvgjsPath3104" d="M54.1 102.4c-.2-2.1-.4-7.4.8-9 2-2.7 5.6 6.1 6.5 8.8 0 .1.1.2.1.2.1.3-.1.7-.4.6-.4-.2-.8-.6-1.2-.8-1.1-.5-1.5.4-1.2 1.7.4 1.7 1.3 2.7 2.1 4 .1.2 0 .4-.2.3-1.5-.9-3.3-4.2-2.9-6.2.3-1.8 1.8-1.7 2.9-.8-.7-1.6-1.4-3.1-2.3-4.5-.6-.9-1.1-1.9-2-2-1.1-.2-.9.3-1.1 1.7-.8 4.6-.3 9.7 2.4 13.7.1.1 0 .2-.1.1-2-2.2-3.1-4.7-3.4-7.8z" fill="#d4958a" stroke-width="none" opacity="1" stroke="none"></path></g></g><g id="svga-group-ears-right-move" transform="matrix(1,0,0,1,0,0)"><g id="svga-group-ears-right" transform="matrix(1,0,0,1,0,0)"><path id="SvgjsPath3105" d="M135.8 96.3c.2-.3 3.1-4 5.5-6.3 2.5-2.3 3.2-2.2 4.4-.8s2.7 8.5 2.3 11.7-3.3 8.2-4.9 11c-1.6 2.8-3.1 6.3-4.8 6-1.8-.3-4.2-4.3-5.3-7.3-1.2-3-.6-10.3 2.8-14.3z" fill="#f3d4cf" stroke-width="none" opacity="1" stroke="none"></path><path id="SvgjsPath3106" d="M135.7 96.3c1.8-2.3 3.5-4.7 5.6-6.8.5-.5 1-1 1.7-1.4.3-.2.7-.4 1.1-.4.4-.1.8.1 1.1.3.3.2.6.5.8.7.1.1.2.3.3.5s.2.3.3.5c.3.7.5 1.4.7 2.2.4 1.5.6 3 .8 4.5.1 1.5.3 3.1.1 4.7-.1.8-.3 1.6-.6 2.3-.3.8-.6 1.5-.9 2.2-.6 1.4-1.3 2.8-2 4.2-.7 1.4-1.4 2.7-2.1 4.1-.7 1.4-1.4 2.8-2.5 4-.3.3-.6.6-1 .7s-.9.2-1.2 0c-.7-.2-1.2-.7-1.7-1.2-1-1-1.7-2.2-2.4-3.4-.3-.6-.6-1.3-.9-2-.1-.3-.3-.7-.4-1l-.3-1.2c-.1-.8-.2-1.6-.2-2.4s.1-1.6.2-2.4c.5-3.3 1.6-6.4 3.5-8.7zm.1.1c-.9 1.1-1.6 2.5-2.1 4s-.7 3-.8 4.5 0 3 .3 4.3c0 .2.1.3.1.5l.2.4c.1.3.3.6.4.9l.9 1.8c.6 1.2 1.4 2.3 2.2 3.2.4.4.9.8 1.3 1 .4.2.8 0 1.2-.4s.8-1 1.2-1.6.8-1.3 1.1-1.9c.7-1.3 1.6-2.6 2.3-3.9.8-1.3 1.5-2.6 2.2-4l.9-2.1c.3-.7.5-1.5.5-2.2.1-1.5-.1-3-.4-4.4-.3-1.4-.6-2.9-1.1-4.2-.2-.7-.5-1.3-.7-1.9-.1-.1-.1-.3-.2-.4-.1-.1-.1-.2-.2-.3l-.6-.6c-.7-.6-1.8.4-2.9 1.2-2 1.6-4 3.8-5.8 6.1z" fill="#e4b3ab" stroke-width="none" opacity="1" stroke="none"></path><path id="SvgjsPath3107" d="M145.9 102.4c.2-2.1.4-7.4-.8-9-2-2.7-5.6 6.1-6.5 8.8 0 .1-.1.2-.1.2-.1.3.1.7.4.6.4-.2.8-.6 1.2-.8 1.1-.5 1.5.4 1.2 1.7-.4 1.7-1.3 2.7-2.1 4-.1.2 0 .4.2.3 1.5-.9 3.3-4.2 2.9-6.2-.3-1.8-1.8-1.7-2.9-.8.7-1.6 1.4-3.1 2.3-4.5.6-.9 1.1-1.9 2-2 1.1-.2.9.3 1.1 1.7.8 4.6.3 9.7-2.4 13.7-.1.1 0 .2.1.1 2-2.2 3.1-4.7 3.4-7.8z" fill="#d4958a" stroke-width="none" opacity="1" stroke="none"></path></g></g><g id="svga-group-faceshape-wrap" transform="matrix(1,0,0,1,0,0)"><g id="svga-group-faceshape-single"><path id="SvgjsPath3134" d="M141 88.4c0 30.3-18.9 65.2-41 65.2s-41-34.9-41-65.2 18.9-47 41-47 41 16.6 41 47z" fill="#f3d4cf" stroke-width="none" opacity="1" stroke="none"></path><path id="SvgjsPath3135" d="M100 41.3c-22.1 0-41.1 16.7-41.1 47s19 65.5 41.1 65.5 41.1-35.2 41.1-65.5-19-47-41.1-47zm28.2 13.6.8.8c.3.3.5.6.8.9.3.3.5.6.8.9l.7.9c.2.3.5.6.7.9l.7 1 .3.5.3.5c.4.7.9 1.3 1.2 2l.6 1c.2.3.4.7.5 1l.5 1.1.5 1.1c.2.4.3.7.5 1.1l.4 1.1c2.3 5.9 3.2 12.4 3.3 18.7 0 6.4-.9 12.8-2.6 18.9-.8 3.1-1.9 6.1-3.1 9-1.2 2.9-2.5 5.8-4 8.6s-3.1 5.5-4.8 8.1c-.9 1.3-1.8 2.6-2.7 3.8-.9 1.2-1.9 2.4-3 3.6-2 2.3-4.3 4.4-6.7 6.3-2.4 1.8-5 3.3-7.8 4.3-1.4.5-2.8.9-4.3 1-1.5.2-2.9.2-4.4.1-3-.2-5.9-1.2-8.6-2.6-2.7-1.4-5.3-3.3-7.6-5.4-2.3-2.1-4.4-4.5-6.3-7.1s-3.6-5.3-5-8.1c-1.5-2.8-2.8-5.7-3.9-8.7-.6-1.5-1.1-3-1.6-4.5s-.9-3-1.3-4.6c-.8-3.1-1.4-6.2-1.8-9.3-.4-3.1-.7-6.3-.8-9.4 0-1.6 0-3.1.1-4.7 0-.8.1-1.6.1-2.3l.2-2.3c.3-3.1.9-6.2 1.7-9.1.8-3 1.8-5.9 3.2-8.6.2-.4.3-.7.5-1l.5-1c.4-.7.8-1.3 1.2-2 .4-.6.8-1.3 1.3-1.9l.7-.9.3-.5.4-.4c1.9-2.4 4.1-4.5 6.5-6.3s5-3.3 7.8-4.5 5.7-2 8.6-2.5c.7-.2 1.5-.2 2.2-.3.4-.1.8-.1 1.1-.1l1.1-.1c.8 0 1.5-.1 2.3-.1H102.6l1.1.1c.4 0 .8.1 1.1.1.4 0 .8.1 1.1.1l1.1.2.6.1.6.1 1.1.2c.4.1.7.2 1.1.3s.7.2 1.1.3c1.4.4 2.9.9 4.3 1.5s2.8 1.2 4.1 2c2.7 1.5 5.2 3.3 7.4 5.4l.4.4.5.3z" fill="#c5796d" stroke-width="none" opacity="1" stroke="none"></path></g></g><g id="svga-group-mouth-single-move" transform="matrix(1,0,0,1,0,0)"><g id="svga-group-mouth-single" transform="matrix(1,0,0,1,0,0)"><path id="SvgjsPath6125" d="M95.2 133.6c3.7 1.9 5.4 1.5 7.2 1.3s6.2-2.5 9-5.2c2.7-2.7 3.2-4.2 3.2-4.2-2.5-.5-9.6-2.6-10.7-2.4-.8.1-2.9 1.9-3.6 1.9s-3.1-1.5-3.9-1.6c-.9-.1-2.3.4-4.4 1.1s-6 1.1-6 1.1 5.5 6.1 9.2 8z" fill="#da7c87" stroke-width="none" opacity="1" transform="translate(0 3)" stroke="none"></path><path id="SvgjsPath6126" d="M85.5 125.7c4.9 1.2 10.2 2.1 15.2 2.3 1.8.1 3.7-.3 5.5-.6 3-.5 6.3-.8 9.2-1.8.3-.1.3-.7-.1-.6-4.8.6-9.7 2.4-14.6 2.2-5.1-.2-10.1-1.4-15.2-1.9-.2.1-.2.4 0 .4z" fill="#cb5f6c" stroke-width="none" opacity="1" transform="translate(0 3)" stroke="none"></path></g></g><g id="svga-group-eyes-left-move" transform="matrix(1,0,0,1,0,0)"><g id="svga-group-eyes-left" transform="matrix(1,0,0,1,0,0)"><g id="svga-group-eyesback-left"><path id="SvgjsPath5350" d="M90.9 101.3s-.3-2.5-1-3.8-3.7-4.4-7-5c-4.9-1-9.3 1.7-9.3 1.7s0 2.4 1.5 4.1c1.4 1.7 3.9 2.6 4.9 2.7s4.6.3 6.5 0c1.3-.2 2.8-.2 3.4 0 .5.2 1 .3 1 .3z" fill="#ffffff" stroke-width="none" opacity="1"></path></g><g id="svga-group-eyesiriswrapper-left" transform="matrix(1,0,0,1,0,0)"><g id="svga-group-eyesiriscontrol-left" transform="matrix(1,0,0,1,0,0)"><g id="svga-group-eyesiris-left" transform="matrix(1,0,0,1,0,0)"><path id="SvgjsPath5712" d="M82 91.2c2.9 0 5.2 2.3 5.2 5.2s-2.3 5.2-5.2 5.2-5.2-2.3-5.2-5.2 2.3-5.2 5.2-5.2z" fill="#55633a" stroke-width="none" opacity="1" stroke="none"></path><path id="SvgjsPath5713" d="M82 101.8c-3 0-5.4-2.4-5.4-5.4S79 91 81.9 91s5.4 2.4 5.4 5.4c.1 3-2.3 5.4-5.3 5.4zm-.1-10.2c-2.7 0-4.9 2.2-4.9 4.9s2.2 4.9 4.9 4.9 4.9-2.2 4.9-4.9c0-2.8-2.2-5-4.9-4.9z" fill="#455328" stroke-width="none" opacity="1" stroke="none"></path><path id="SvgjsPath5714" d="M82 92c2.4 0 4.4 2 4.4 4.4s-2 4.4-4.4 4.4-4.4-2-4.4-4.4 2-4.4 4.4-4.4z" fill="#5d6a43" stroke-width="none" opacity="1" stroke="none"></path><path id="SvgjsPath5715" d="M82 92.6c2.1 0 3.8 1.7 3.8 3.8s-1.7 3.8-3.8 3.8-3.8-1.7-3.8-3.8 1.7-3.8 3.8-3.8z" fill="#66724e" stroke-width="none" opacity="1" stroke="none"></path><path id="SvgjsPath5716" d="M82 93.6c1.5 0 2.8 1.3 2.8 2.8s-1.3 2.8-2.8 2.8-2.8-1.3-2.8-2.8 1.3-2.8 2.8-2.8z" fill="#000000" stroke-width="none" opacity="1"></path><path id="SvgjsPath5717" d="M80.7 93.6c.5 0 1 .4 1 1s-.4 1-1 1c-.5 0-1-.4-1-1s.5-1 1-1zm3.2 4.4c.2 0 .4.2.4.4s-.2.4-.4.4-.4-.2-.4-.4c.1-.2.2-.4.4-.4z" fill="#ffffff" stroke-width="none" opacity="1"></path></g></g></g><g id="svga-group-eyesfront-left"><path id="SvgjsPath5358" d="M70.73 98.03c0 6.9 4.93 12.5 11.02 12.5s11.02-5.6 11.02-12.5-4.93-12.5-11.02-12.5-11.02 5.59-11.02 12.5zm2.88-3.78s4.42-2.71 9.34-1.75c3.29.64 6.2 3.74 6.95 5.03.75 1.28 1.03 3.82 1.03 3.82s-.53-.14-1.11-.32c-.57-.18-2.05-.19-3.39.04-1.89.32-5.46.18-6.45.04-1-.14-3.49-1.07-4.92-2.75-1.41-1.69-1.45-4.11-1.45-4.11z" fill="#f3d4cf" stroke-width="none" opacity="1" stroke="none"></path><path id="SvgjsPath5359" d="M73.27 94.64c-.1.42-.12.84-.06 1.25-.57-.03-1.21.05-1.59.44-.14.14.01.33.18.3.3-.05.58-.2.88-.27.21-.05.42-.06.63-.05.06.21.13.42.22.63-.18.06-.35.14-.5.21-.38.17-.75.42-.99.76-.11.15.09.28.22.22.35-.16.68-.38 1.03-.55.15-.07.32-.12.49-.18.16.28.35.54.56.8-.41.24-.78.58-.9 1.03-.03.1.09.21.19.15.36-.24.65-.57.96-.88 1.11 1.22 2.67 2.16 3.92 2.57 1.88.62 3.93.72 5.89.62 1.85-.09 4.72-1.14 6.43-.21.07.04.13.02.17-.02l.03-.03c.01-.02.02-.04.02-.06 0-.01.01-.01.01-.03-.1-4.06-2.64-7.49-6.4-8.97-2.08-.82-4.37-1.02-6.58-.69-2.59.39-4.87 1.66-7.54 1.44-.23-.02-.34.3-.18.44.9.88 1.89 1.13 2.91 1.08zm.67-.07c1.99-.32 4.11-1.54 6.09-1.68 5.13-.36 10.05 3 10.7 8.24-2.39-.82-5.13-.1-7.59-.15-2.01-.04-4.14-.32-5.91-1.34-2.21-1.28-2.61-2.93-3.29-5.07z" fill="#000000" stroke-width="none" opacity="1" stroke="none"></path></g></g></g><g id="svga-group-eyes-right-move" transform="matrix(1,0,0,1,0,0)"><g id="svga-group-eyes-right" transform="matrix(1,0,0,1,0,0)"><g id="svga-group-eyesback-right"><path id="SvgjsPath5351" d="M109.1 101.3s.3-2.5 1-3.8 3.7-4.4 7-5c4.9-1 9.3 1.7 9.3 1.7s0 2.4-1.5 4.1c-1.4 1.7-3.9 2.6-4.9 2.7s-4.6.3-6.5 0c-1.3-.2-2.8-.2-3.4 0-.5.2-1 .3-1 .3z" fill="#ffffff" stroke-width="none" opacity="1"></path></g><g id="svga-group-eyesiriswrapper-right" transform="matrix(1,0,0,1,0,0)"><g id="svga-group-eyesiriscontrol-right" transform="matrix(1,0,0,1,0,0)"><g id="svga-group-eyesiris-right" transform="matrix(1,0,0,1,0,0)"><path id="SvgjsPath5718" d="M118 91.2c2.9 0 5.2 2.3 5.2 5.2s-2.3 5.2-5.2 5.2-5.2-2.3-5.2-5.2 2.3-5.2 5.2-5.2z" fill="#55633a" stroke-width="none" opacity="1" stroke="none"></path><path id="SvgjsPath5719" d="M118.1 101.8c-3 0-5.4-2.4-5.4-5.4S115 91 118 91s5.4 2.4 5.4 5.4c.1 3-2.3 5.4-5.3 5.4zm-.1-10.2c-2.7 0-4.9 2.2-4.9 4.9s2.2 4.9 4.9 4.9 4.9-2.2 4.9-4.9c0-2.8-2.2-5-4.9-4.9z" fill="#455328" stroke-width="none" opacity="1" stroke="none"></path><path id="SvgjsPath5720" d="M118 92c2.4 0 4.4 2 4.4 4.4s-2 4.4-4.4 4.4-4.4-2-4.4-4.4 2-4.4 4.4-4.4z" fill="#5d6a43" stroke-width="none" opacity="1" stroke="none"></path><path id="SvgjsPath5721" d="M118 92.6c2.1 0 3.8 1.7 3.8 3.8s-1.7 3.8-3.8 3.8-3.8-1.7-3.8-3.8 1.7-3.8 3.8-3.8z" fill="#66724e" stroke-width="none" opacity="1" stroke="none"></path><path id="SvgjsPath5722" d="M118 93.6c1.5 0 2.8 1.3 2.8 2.8s-1.3 2.8-2.8 2.8-2.8-1.3-2.8-2.8 1.3-2.8 2.8-2.8z" fill="#000000" stroke-width="none" opacity="1"></path><path id="SvgjsPath5723" d="M116.8 93.6c.5 0 1 .4 1 1s-.4 1-1 1-1-.4-1-1 .4-1 1-1zM120 98c.2 0 .4.2.4.4s-.2.4-.4.4-.4-.2-.4-.4.2-.4.4-.4z" fill="#ffffff" stroke-width="none" opacity="1"></path></g></g></g><g id="svga-group-eyesfront-right"><path id="SvgjsPath5360" d="M118.26 85.53c-6.08 0-11.02 5.6-11.02 12.5s4.93 12.5 11.02 12.5 11.02-5.6 11.02-12.5-4.94-12.5-11.02-12.5zm6.67 12.82c-1.43 1.68-3.92 2.6-4.92 2.75-1 .14-4.56.29-6.45-.04-1.34-.23-2.82-.21-3.39-.04-.57.18-1.11.32-1.11.32s.29-2.53 1.03-3.82c.75-1.28 3.66-4.38 6.95-5.03 4.92-.96 9.34 1.75 9.34 1.75s-.03 2.43-1.45 4.11z" fill="#f3d4cf" stroke-width="none" opacity="1" stroke="none"></path><path id="SvgjsPath5363" d="M129.64 93.58c.15-.15.04-.46-.18-.44-2.68.22-4.96-1.05-7.54-1.44-2.21-.33-4.49-.13-6.58.69-3.76 1.48-6.31 4.91-6.4 8.97 0 .01.01.02.01.03 0 .02.01.04.02.06l.03.03c.04.04.1.06.17.02 1.71-.93 4.58.11 6.43.21 1.96.1 4.02-.01 5.89-.62 1.25-.41 2.81-1.35 3.92-2.57.31.31.6.64.96.88.1.06.22-.04.19-.15-.12-.45-.5-.79-.9-1.03.21-.26.4-.52.56-.8.17.06.34.11.49.18.35.17.68.39 1.03.55.13.06.33-.07.22-.22-.25-.34-.61-.59-.99-.76-.15-.07-.32-.15-.5-.21.09-.21.17-.42.22-.63.21 0 .42.01.63.05.3.07.58.21.88.27.17.03.31-.16.18-.3-.38-.39-1.02-.48-1.59-.44.06-.41.04-.83-.06-1.25 1.02.03 2.01-.22 2.91-1.08zm-6.87 6.06c-1.77 1.03-3.9 1.3-5.91 1.34-2.46.05-5.21-.67-7.59.15.65-5.24 5.56-8.6 10.7-8.24 1.98.14 4.1 1.36 6.09 1.68-.68 2.14-1.08 3.79-3.29 5.07z" fill="#000000" stroke-width="none" opacity="1" stroke="none"></path></g></g></g><g id="svga-group-facehighlight-single"></g><g id="svga-group-eyebrows-left-move" transform="matrix(1,0,0,1,0,0)"><g id="svga-group-eyebrows-left-rotate" transform="matrix(1,0,0,1,0,0)"><g id="svga-group-eyebrows-left" transform="matrix(1,0,0,1,0,0)"><path id="SvgjsPath3261" d="M68.8 86s.1 0 0 0c.1-.1.1-.1.1-.2.3-.6.9-1 1.4-1.3.6-.4 1.3-.9 1.9-1.3h.1c1.5-1.1 4-1.3 6-.8 1.9.2 3.8.8 5 1.3.1 0 .2.1.4.1 1.6.3 3.3.6 4.8 1.2 1.5.3 3 .5 4.4 1h.1c.1-.1.4 0 .4.2.1.2.1.4 0 .7.2 0 .3.1.3.3-.1.5-.3.9-.6 1.3v.1c-.3.8-.9 1.1-1.8 1-.1 0-.2 0-.4-.1-.1.1-.2.1-.3.1-1.6-.1-3.2-.8-4.6-1.4-.9-.4-1.9-.8-2.8-1.3-1.4-.2-2.8-.6-4.2-.9-1.3-.3-2.8-.3-4-.8-.4.1-.9.1-1.3.2-.3.1-.6.2-1 .2-1 .3-2.2.8-3.2.9h-.1c-.1 0-.1.1-.2.1-.2.2-.4.4-.7.5-.1 0-.3-.1-.3-.2 0-.5.3-.7.6-.9z" fill="#2a232b" stroke-width="none" opacity="1"></path><path id="SvgjsPath3262" d="M89.9 85.4c1.3.8 1.5 2.8 1.3 4.2 0 .3-.5.3-.6 0-.2-.7-.2-1.4-.3-2.1-.2-.6-.4-1.1-.7-1.7-.1-.3.1-.6.3-.4zm-3.2-.9c2.1.4 3.4 2.9 3.6 4.8 0 .2-.3.2-.3.1-.2-1-.6-1.9-1.2-2.7-.6-.8-1.4-1.3-2.2-2-.1-.1 0-.3.1-.2zM81 83.1c.9.2 1.9 1 2.6 1.7.7.7 1.3 1.5 1.5 2.4 0 .2-.2.3-.3.2-.5-.8-.9-1.6-1.7-2.2-.7-.6-1.6-1-2.2-1.8-.1-.2-.1-.3.1-.3zM76.3 82c2.3 0 4.7 2.1 5.4 4.2.1.2-.2.3-.3.1-.6-.9-1.2-1.8-2.1-2.5-.9-.7-1.9-1-3-1.4-.3-.1-.3-.4 0-.4zm-5.6 2.4c2.1-2.7 6.2-1.8 7.9.8.1.2-.2.4-.3.2-1-.9-2.1-1.9-3.5-2-1.5-.2-2.7.8-3.9 1.3-.3.1-.3-.2-.2-.3z" fill="#3a353a" stroke-width="none" opacity="1"></path><path id="SvgjsPath3263" d="M92.1 90.3c1.6-.4 2-2.2 2-3.7 0-.3-.4-.3-.5-.1-.2.6-.4 1.3-.7 1.8-.3.5-.7.8-1.1 1 .4-1.2.2-2.6-.6-3.7.6.1 1.1.3 1.7.4.2 0 .3-.2.1-.3-2.7-1-5.6-1.6-8.3-2.4-2.4-.7-4.9-1.4-7.3-1.7-4.6-.6-7.6 2.4-10.3 5.7-.1.1-.2.2-.3.2-.4.3 0 .9.4.6 2.5-1.5 5-2.4 7.9-2.4 3.1.1 6.2 1.1 9.2 2.1 1.6.6 3.1 1.2 4.6 1.8 1 .6 2.1 1 3.2.7zm-20-6.8c1-.7 2.1-1 3.1-1.1.8.4 1.6.8 2.3 1.4.5.5.9 1.1 1.3 1.6-.1 0-.2-.1-.4-.1-3.4-.7-6.6-.4-9.5 1 1-1 2-2 3.2-2.8zm19.3 6c-.5 0-1.1-.1-1.7-.3-1.2-.4-2.4-1-3.6-1.5-.2-.1-.4-.1-.6-.2 0-.9-.3-1.8-.9-2.4-.1-.1-.3 0-.2.2.3.7.7 1.4.9 2.1-.8-.3-1.5-.6-2.3-.8-.7-1.5-2.1-3.1-3.6-3.8-.2-.1-.3.2-.2.3.6.6 1.3 1 1.9 1.7.5.5.9 1.1 1.3 1.7-1-.3-1.9-.6-2.9-.8-.2-.8-.9-1.6-1.5-2.1-.4-.4-1-.8-1.5-1.1.9 0 1.9.1 2.8.3 3.8.8 7.6 1.9 11.4 2.8.8 1.2 1 2.5.7 3.9z" fill="#1b141c" stroke-width="none" opacity="1"></path></g></g></g><g id="svga-group-eyebrows-right-move" transform="matrix(1,0,0,1,0,0)"><g id="svga-group-eyebrows-right-rotate" transform="matrix(1,0,0,1,0,0)"><g id="svga-group-eyebrows-right" transform="matrix(1,0,0,1,0,0)"><path id="SvgjsPath3264" d="M131.2 86s-.1 0 0 0c-.1-.1-.1-.1-.1-.2-.3-.6-.9-1-1.4-1.3-.6-.4-1.3-.9-1.9-1.3h-.1c-1.5-1.1-4-1.3-6-.8-1.9.2-3.8.8-5 1.3-.1 0-.2.1-.4.1-1.6.3-3.3.6-4.8 1.2-1.5.3-3 .5-4.4 1h-.1c-.1-.1-.4 0-.4.2-.1.2-.1.4 0 .7-.2 0-.3.1-.3.3.1.5.3.9.6 1.3v.1c.3.8.9 1.1 1.8 1 .1 0 .2 0 .4-.1.1.1.2.1.3.1 1.6-.1 3.2-.8 4.6-1.4.9-.4 1.9-.8 2.8-1.3 1.4-.2 2.8-.6 4.2-.9 1.3-.3 2.8-.3 4-.8.4.1.9.1 1.3.2.3.1.6.2 1 .2 1 .3 2.2.8 3.2.9h.1c.1 0 .1.1.2.1.2.2.4.4.7.5.1 0 .3-.1.3-.2 0-.5-.3-.7-.6-.9z" fill="#2a232b" stroke-width="none" opacity="1"></path><path id="SvgjsPath3265" d="M110.1 85.4c-1.3.8-1.5 2.8-1.3 4.2 0 .3.5.3.6 0 .2-.7.2-1.4.3-2.1.2-.6.4-1.1.7-1.7.1-.3-.1-.6-.3-.4zm3.2-.9c-2.1.4-3.4 2.9-3.6 4.8 0 .2.3.2.3.1.2-1 .6-1.9 1.2-2.7.6-.8 1.4-1.3 2.2-2 .1-.1 0-.3-.1-.2zm5.7-1.4c-.9.2-1.9 1-2.6 1.7-.7.7-1.3 1.5-1.5 2.4 0 .2.2.3.3.2.5-.8.9-1.6 1.7-2.2.7-.6 1.6-1 2.2-1.8.1-.2.1-.3-.1-.3zm4.7-1.1c-2.3 0-4.7 2.1-5.4 4.2-.1.2.2.3.3.1.6-.9 1.2-1.8 2.1-2.5.9-.7 1.9-1 3-1.4.3-.1.3-.4 0-.4zm5.6 2.4c-2.1-2.7-6.2-1.8-7.9.8-.1.2.2.4.3.2 1-.9 2.1-1.9 3.5-2 1.5-.2 2.7.8 4 1.3.2.1.2-.2.1-.3z" fill="#3a353a" stroke-width="none" opacity="1"></path><path id="SvgjsPath3266" d="M111.1 89.8c1.5-.6 3.1-1.2 4.6-1.8 2.9-1 6.1-2.1 9.2-2.1 2.9-.1 5.5.9 7.9 2.4.4.2.8-.4.4-.6-.1-.1-.2-.2-.4-.2-2.7-3.3-5.7-6.2-10.3-5.7-2.5.3-4.9 1.1-7.3 1.7-2.8.8-5.6 1.4-8.3 2.4-.2.1-.1.3.1.3.6-.1 1.1-.2 1.7-.4-.8 1-1 2.5-.6 3.7-.4-.1-.8-.4-1.1-1-.3-.6-.4-1.2-.7-1.8-.1-.2-.5-.2-.5.1.1 1.4.5 3.2 2 3.7 1.2.1 2.3-.3 3.3-.7zm19.9-3.5c-3-1.4-6.2-1.7-9.5-1-.1 0-.2.1-.4.1.4-.5.8-1.1 1.3-1.6.7-.6 1.5-.9 2.3-1.4 1.1.1 2.1.5 3.1 1.1 1.3.8 2.3 1.8 3.2 2.8zm-21.6-.7c3.8-.9 7.6-2 11.4-2.8 1-.2 1.9-.3 2.8-.3-.6.3-1.1.7-1.5 1.1-.6.5-1.3 1.3-1.5 2.1-1 .2-2 .5-2.9.8.4-.6.8-1.2 1.3-1.7.6-.6 1.3-1.1 1.9-1.7.1-.1 0-.3-.2-.3-1.5.6-2.9 2.2-3.6 3.8-.8.2-1.6.5-2.3.8.2-.7.5-1.4.9-2.1.1-.2-.1-.3-.2-.2-.6.6-.9 1.6-.9 2.4-.2.1-.4.1-.6.2-1.2.5-2.4 1.1-3.6 1.5-.6.2-1.2.4-1.7.3-.4-1.4-.2-2.7.7-3.9z" fill="#1b141c" stroke-width="none" opacity="1"></path></g></g></g><g id="svga-group-nose-single-move" transform="matrix(1,0,0,1,0,0)"><g id="svga-group-nose-single" transform="matrix(1,0,0,1,0,0)"><path id="SvgjsPath6630" d="M104.93 107.57c-.14-.18-.45.05-.32.25.84 1.29 1.76 2.56 2.54 3.89.53.9 1.07 2.03.7 3.12-.61 1.79-2.18 1.68-3.45 1 .48-.61.75-1.33.69-2.12-.02-.19-.29-.37-.44-.18-1.26 1.59-2.06 3.25-4.41 3.34-2.48.1-4.08-1.91-4.73-4.07-.06-.19-.32-.14-.33.04-.07.99.25 1.95.79 2.76-.36.07-.73.14-1.09.16-1.15.07-1.34-.02-2.11-.98-.8-1.01-.81-1.27-.36-2.39.21-.53.52-.98.82-1.45.97-1.52 1.84-3.06 2.48-4.75 1.29-3.37 1.85-7.09 1.22-10.66-.03-.15-.26-.11-.27.04-.01 2.89-.19 5.74-1.04 8.52-.88 2.88-2.54 5.04-3.92 7.64-.72 1.35-1.02 3.12.21 4.28 1.22 1.15 3.1.78 4.52.24.85.92 2.02 1.56 3.26 1.67 1.4.12 3.23-.55 4.36-1.7 1.31 1.45 3.82.78 4.47-1.08 1.01-2.82-2.06-5.64-3.59-7.57z" fill="#c5796d" stroke-width="none" opacity="1" transform="translate(0 2)"></path><path id="SvgjsPath6631" d="M102 110.13c-.8-.75-2.07-.97-2.97-.27-.33.25-.52.57-.61.9-.16.05-.3.14-.44.27-.68.67-.39 1.71.19 2.34.5.53 1.31.78 2.02.75.88-.05 1.67-.46 2.16-1.2.57-.86.4-2.09-.35-2.79z" fill="#fbe5e2" stroke-width="none" opacity="1" transform="translate(0 2)"></path></g></g><g id="svga-group-hair-front" transform="matrix(1,0,0,1,0,0)"><path id="SvgjsPath4198" d="M162.6 57.4c-.2-2.8-1.3-5.7-3.2-7.7.2-3-.9-6-3.1-8.3-.4-.4-.9-.8-1.3-1.1-.9-1.8-2.4-3.4-4-4.6-2.8-6.5-8.6-12-15.2-9.1-3.9-2.5-10.2-2.3-11.8 2.4-4.2 1.4-7.5 5.5-7.3 9.7-5.3-2.4-12.3-1.5-17.2 1.5-4.3-2.8-10.1-3.6-15.5-2.6-.3-2.7-1.5-5.3-3.7-7.1-.8-3-3-5.8-6.1-7-4.3-1.8-8.6-1-12.3 1.2-3.5 1.2-6.6 3.9-8 7.2-1.5.5-2.8 1.3-4 2.3-.6.5-1.1 1.1-1.6 1.7h-.1c-4.3 2.4-7.3 7.2-6.4 12.3 0 .3.1.6.2.9-.1.2-.2.5-.3.7-3.2 3-5.6 6.7-4.8 11.3.4 2.7 2.1 5.1 4.5 6.1.2.3.5.6.7.9 1.1 1.1 2.6 1.7 4 1.6 1.2 1.4 2.9 2.4 4.9 2.7 1.1.2 2.2.1 3.2-.2-.8 6.8.5 14.1 3.9 18.7.1.2.3.2.4.1.7 1.3 1.4 2.6 2.2 3.8-.1.9-.4 1.9-.8 3-.3.9-.5 1.7-.4 2.7.2 2.8 2.4 4.9 2.8 7.7 0 .2.4.2.4 0 .6-3.5-2.2-6.4-1.2-9.9.4-1.4.8-2.7.8-3.9.4-2 0-4.4-.6-6.6.3-.1.5-.4.4-.7-.1-.2-.1-.5-.2-.7.2.2.8.2.7-.2-.1-1-.3-1.9-.5-2.9v-.6c.1-.1.2-.3.2-.5-.1-.7-.2-1.4-.4-2.1.1.1.3.1.5.1.1.1.1.2.2.3.2.3.6 0 .5-.3-.1-.3-.2-.5-.3-.8v-.6c.4.2.9-.1.8-.6-.1-.4-.2-.8-.4-1.2.3.2.7-.1.6-.5l-.3-1.2c.5.2 1.1-.2.9-.8l-.3-.9.4.4c.3.3.8-.2.7-.5 0-.1-.1-.2-.1-.4.7.3 1.4-.6 1.1-1.3-.2-.5-.5-1.1-.7-1.6.1.1.1.2.2.3.2.3.7.1.6-.2 0-.1-.1-.2-.1-.3.1.2.3.3.4.4.4.4 1.2 0 1.1-.5.7.4 1.6-.3 1.2-1.2-.3-.7-.7-1.4-1-2.1l1.2 1.5c.1.2.3.2.4.2.1.1.2.2.3.4.4.4 1.2-.1.8-.6-.5-.7-1-1.4-1.5-2.2-.1-.1-.1-.2-.2-.3.2.2.3.5.5.7.2.2.5.3.7.2.3.1.8-.3.5-.7-.1-.1-.1-.2-.2-.4.5.4 1 .7 1.5 1 .5.3 1.3-.3.9-.9-.2-.2-.4-.5-.5-.7.2 0 .4-.2.4-.4.2.1.5.2.7.3.7.2 1.1-.7.7-1.1-.3-.3-.6-.6-.9-.8.7.3 1.3.5 2 .6.6.1.9-.6.4-1-.1-.1-.2-.2-.4-.3.4.1.8.2 1.1.3.7.1 1-.7.4-1.1h.2c.2 0 .3 0 .4-.1.2.2.4.3.6.5.7.6 1.8-.4 1.1-1.1-.1 0-.1-.1-.2-.2.3.3.7.5 1 .8.4.3.9-.4.6-.8l-.6-.6c.5.1 1 .2 1.4.3h.2c-1.2 1-2.2 2.5-2.5 4-.1.3.4.5.5.2.8-1.6 1.8-3 3.4-3.9.9-.5 1.8-.7 2.6-.8h.5c-1.7 1.5-3 3.7-3.4 6-.3 1.9 0 3.7.3 5.5 0 3.4.5 7 .2 10 0 .2.3.2.3 0 .7-2.2.8-4.4.8-6.7.5-2 .2-3.9.2-5.8.3-2.4 1-4.6 2.7-6.7 0 0 .1-.1.1-.2 1.3-1.2 2.8-1.7 4.4-1.9-.6.3-1.1.7-1.5 1-1.8 1.6-2.9 4.2-3.2 6.7-.8 3.6-.7 7.5-1.1 10.9 0 .2.3.2.3 0 1.5-3.9 1.7-12 4.5-16 1.8-1.9 4.2-2.4 6.7-1.8h.3c.1 0 .2 0 .2.1h.2c.2.1.3.1.5.2.3.4.9.6 1.5.3.1.2.3.2.4.1 2.8-1.8 7.9-2.5 8.6 2 .4 2.4-1.3 4.6-.7 7.1.1.2.4.2.5 0 .7-3.5 3.4-7.3.3-10.4h.1c.5-.1 1-.2 1.6-.3-.2.5.3 1.2.9 1 1.1-.2 2.4-.6 3.7-.9l-.9.6c-.8.5-.3 2.1.7 1.7l3.6-1.5c-.6.4-1.3.8-1.9 1.3-.6.4-.1 1.2.6 1 .4-.2.9-.4 1.3-.6.1.3.4.6.8.5.1 0 .2 0 .2-.1-.2.6.2 1.3.9 1 1-.4 1.8-.9 2.7-1.5-.5.6-1.1 1.2-1.6 1.8-.6.6.2 1.6.9 1.2h.1l-.2.2c-.5.5.2 1.4.8 1 .6-.3 1.2-.7 1.7-1.1-.1.2-.3.4-.4.6-.4.6.4 1.1 1 .7h.1c-.1.6.6 1.1 1.2.6.5-.5 1.1-1 1.7-1.6-.5.6-1.1 1.3-1.7 1.9-.5.5.2 1.5.8 1.1.8-.5 1.6-1.2 2.4-1.9-.6 1.1-1.2 2.1-1.7 3.2-.3.6.4 1.3 1 .8s1.1-1.1 1.6-1.7c-.5.8-1 1.5-1.3 2.3-.2.5.2 1 .7.7.2-.1.4-.2.6-.4.1.5.8.8 1.2.3 1.5-1.7 2.8-3.4 3.9-5.5.1-.2.2-.3.3-.5-.3.7-.6 1.5-.9 2.2-1 2.1-2.4 4-3.9 5.8-.4.5.1 1.5.8 1 .9-.7 1.8-1.5 2.6-2.5-.9 1.7-2 3.2-3.2 4.6-.5.6.3 1.4.9.9 1.2-1 2.3-2.2 3.1-3.5-.7 1.8-1.5 3.5-2.4 5.3-.3.5.4 1.1.8.6 1.1-1.2 2.1-2.7 3-4.2-.7 1.7-1.4 3.3-2.2 4.9-.2.4.2.9.6.8-.2.3-.4.5-.6.8-.4.6.4 1.1.9.7.4-.3.9-.8 1.3-1.2-.5 1-.9 2-1.2 3.1-.2.6.6 1 1 .6.1-.1.1-.2.2-.2-.4.8-.7 1.6-1.1 2.4-.2.5.2.9.6.7-.1.3-.1.5-.2.8-.1.3-.3.6-.4.9-.1.3-.1.7.2.9v.2c-.5 2.2-.6 4.5-.2 6.7 0 .1.1.2.1.2v.6c-.4 1.8-.4 3.6-.1 5.5.6 3.6 2 6.2 1 10-.7 2.6-1.4 4-.4 6.6.1.2.4.2.4-.1-1.1-4.6 2.4-8.1 1.8-12.6-.3-2.3-1.3-4.5-1.2-6.9.1-1.8.6-3.4 1.2-5.1 1.2-1.3 2.1-3.4 2.5-5.3 2.1-4 3.8-8.5 4.2-12.9 1.7.3 3.6-.3 4.8-1.6 1.1-1 1.7-2.4 2-3.9.5-.5.9-1.1 1.3-1.8 2.1 1 4.1-.4 5.4-2.4 3.6-1.8 3.9-7.6 3.5-11.1zm-122.2-1c-.4 1.6-.6 3.1-.5 4.6-.5-1.7-.2-3.6.5-5.5v.9zM45.8 44c0-.4.1-.8.2-1.2v1c0 .1-.1.1-.2.2zm3.4-5.7c0 .1-.1.1-.1.2.1-.2.2-.5.4-.7-.2.2-.3.4-.3.5zm10.1 50.1c-.1-.3-.3-.7-.4-1 .2.3.3.6.4 1zm.6-3.2c.1.3.2.6.4.8.1.5.3.9.4 1.4-.3-.7-.6-1.5-.8-2.2zm2.3-54.8h-1.3.1c.5-.1 1.1-.2 1.6-.2-.2 0-.3.1-.4.2zm3.9-3.4c-.5-.1-1-.1-1.5-.1.3 0 .6-.1.9-.1h.6v.2zm10.3 4.5c-.2 0-.3-.1-.5-.1 0-.1 0-.1-.1-.2l.6.3zm-1.6-4.1c-.2 0-.4-.1-.6-.1-.2-.3-.5-.6-.8-.8.5.3 1 .6 1.4.9zm-2-1.2c-.2 0-.3-.1-.5-.1l-.1-.1c.2.1.4.1.6.2zm9.3 33.5v-.2c.3.1.5-.1.5-.3.1 0 .1 0 .2.1-.2.1-.5.2-.7.4zm10.2-6.3c.2.1.3.2.5.2-.1 0-.3-.1-.5-.2zm4.4-10c-.1 0-.2-.1-.2-.1h.3s0 .1-.1.1zm11.8-1.1s0-.1 0 0c0-.1 0-.1 0 0 0-.1 0 0 0 0zm14.2-10.4c-.8.3-1.7.8-2.4 1.4.8-1.2 1.9-2.1 3.1-2.8-.3.4-.5.9-.7 1.4zm2.5-.5c.1-.2.2-.3.3-.4-.1.1-.2.3-.3.4zm5.6-3.3c-.9-.4-2-.5-2.9-.5-.2 0-.4.1-.7.1 1-.6 2.2-.8 3.4-.6.5.1 1 .2 1.4.4-.3.1-.8.3-1.2.6zm4.7 5.5c-.3-.3-.5-.7-.9-1v-.1s.1 0 .1.1c.4.3.7.6 1 1-.1-.1-.2-.1-.2 0zm1.2 61.2zm.3-1-.1.1v-.2c.1 0 .1 0 .1.1zm3.2-62.4c-.5-.5-1.1-.9-1.7-1.3.8.4 1.6.8 2.4 1.3h-.7zm2.9-1.9c-.5-.3-1-.6-1.6-.9 1.3.5 2.5 1.4 3.6 2.4-.6-.6-1.3-1.1-2-1.5zm2.6 46.7v-.6c.9 0 1.7-.1 2.5-.4-.7.7-1.6 1.1-2.5 1zm8.6-16c-.3-1.4-.6-2.9-1.1-4.4 0-.3-.1-.5-.1-.8.4.8.6 1.7.9 2.6 0 .3.2 1.4.3 2.6zm1.6-15.3v-.1c.1.2.2.3.3.5-.1-.1-.2-.3-.3-.4z" fill="#543c32" stroke-width="none" opacity="1" stroke="none"></path><path id="SvgjsPath4199" d="M151.8 70.8c-.5 1.7-1.6 3.3-3.6 3.5-1.9.3-3.6-.8-4.4-2.5v-1.4c0-.1 0-.1-.1-.1 1.9 1.3 4.1 1.8 5.8-.6.2-.3-.2-.6-.4-.3-4.1 3.9-9.4-4.6-10.9-7.3-2-3.5-3-7.3-2.6-11.4 0-.3-.5-.4-.6-.1-.1.6-.2 1.2-.2 1.7-.2-1.2-.4-2.5-.4-3.7h.9c.1.7.4 1.5.9 2.1.8 2.4 2.6 4.4 5 5.1 2.4.7 5.4-.3 5.4-3.2-.1-4.5-7.4-12.7-11.6-8.5.9-3.1 3.2-5.6 7.1-6.2 1.6 1.7 3 3.6 4.2 5.6 1.2 2.1 2.2 4.3 3 6.6 1.1 3.3 3.4 13.6-4.6 12.1-.4-.1-.6.5-.2.6 7.6 2.7 7.2-7.8 5.9-12.3-1.4-4.8-3.9-9.3-7.3-12.9.2-.2.2-.5-.1-.6h-.4c-1.9-1.9-4.1-3.6-6.4-5-.2-.1-.4.2-.2.3 1.9 1.4 3.6 2.8 5.2 4.4-6.1-.4-9.9 4.6-9.9 9.8-1.9-.9-3.7-2.2-4.9-4.2-2-3.1-3.5-10.3 1.9-11 .2 0 .2-.3 0-.3-4.9.4-5.3 5.8-3.9 9.5 1.2 3.4 3.8 6 7 7.2v.1c-7.2-.2-13.1-6.7-10.7-14.5.1-.3-.4-.4-.5-.1-1.5 4.5-.3 8.9 2.4 11.9-2.3-1.8-4.1-4-5.1-7-.1-.3-.6-.2-.5.2.1.4.2.7.3 1.1-2.3-1.4-5.3-1.9-7.9-.9-.3.1-.3.7.1.7 2.8-.4 5.2-.3 7.8 1.1.1.1.2.1.3 0 .2.4.3.7.5 1.1-3.9-1.5-8.6-1.5-12.4.3-.4.2-.1.8.3.7 4.2-1.1 7.8-1.4 12-.3.2 0 .3 0 .3-.1.7 1.2 1.6 2.4 2.6 3.3-.7-.1-1.6-.3-2.2-.1-.3.1-.2.5 0 .6.4.1.8.1 1.2.2h1.3c.1 0 .2-.1.2-.2.9.7 1.8 1.3 2.9 1.7.2 0 .3 0 .3-.1.4.3.9.5 1.3.8-2.4-.4-5 .3-7.2 1.3-.2.1-.1.5.2.4 2.6-.7 5.1-.7 7.7-.8.2 0 .3-.2.3-.4 1.4.5 2.9.7 4.5.6.4 1.9 1.4 3.8 3.1 5.2 0 0 .1 0 .1.1.1.2.1.4.2.6v.1l-.1-.1c-1.3-.4-2.4-.6-3.5-1.4-1.2-.8-2.1-2-2.6-3.4-.1-.3-.5-.2-.4.1.1.2.1.5.2.7-1.4-.2-3.1-.3-4.3.4-.3.2-.2.7.2.6 1.4-.1 2.8-.4 4.2-.4.1 0 .2 0 .2-.1 1 2.1 3.1 4.1 5.5 4.2-1.7 1.6-3.3 3.3-4.9 5-.2.2.1.5.3.3 1.8-1.6 3.4-3.3 5-5.1.1-.1.1-.2 0-.2h.1c.1 0 .2-.1.3-.2.2 1.4.5 2.7 1 4-.8 2.5-2 4.6-3.5 6.7-.2.2.2.5.4.3 1.7-1.6 2.9-3.9 3.4-6.2.3.7.7 1.5 1.1 2.2-.6 1.4-1.2 2.8-1.9 4.2-.8 1.5-1.7 2.8-2.5 4.2-.2.3.3.7.6.4 2-2.1 3.6-5 4.4-7.9.4.6.7 1.1 1.1 1.7-1.2 2.5-2.4 5.1-3.3 7.8-.1.3.4.5.5.2 1.2-2.4 2.2-5 3.2-7.5.2.3.5.7.7 1-.2-.1-.4-.1-.4.2-.4 3.1-1.5 5.7-2.8 8.4-.2.4.3.7.6.3 1.9-2.5 2.6-5.6 2.8-8.7v-.1c.1.1.2.2.3.4.6.7 1.3 1.6 2.2 2.3-.3 2.8-1 5.3-1.9 7.9-.1.3.3.5.5.2 1.2-2.4 2-5 2.1-7.6.1.1.2.2.4.3-.1 0-.3 0-.3.2-.4 4.1-1.3 7.5-2.8 11.3-.1.3.4.6.6.2 1.6-2.7 2.4-6 2.6-9.1.1.2.2.3.3.5l-.1.1c-.9 6.1-2.6 11.5-5.4 17-.2.3.3.6.5.3l1.8-3c-.2.5-.4 1-.5 1.5-.1.2.3.4.4.2 1.7-3.4 2.7-7.2 3.2-11 .3-1.6.4-3.1.5-4.7 1 1 2.3 1.6 3.8 1.4 2.1-.3 3.9-2.1 4-4.3-.2-.5-.7-.5-.8-.2zm-6.5-19.6c1.3 4.2-2.7 4.7-5.4 3.1-.2-.2-.5-.3-.7-.5 2.2 1.2 5.4.6 5.6-2.3 0-.3-.4-.3-.5-.1-1 2.6-4 2.2-5.7.6-.5-.5-1.2-1.2-1.7-2.1-.1-.2-.1-.4-.1-.5 0-.2-.2-.3-.3-.3-.1-.1-.1-.3-.1-.4.3-.1.3-.6-.1-.6h-.1c-.1-.6 0-1.1.3-1.6.1-.2-.2-.5-.4-.3-.3.4-.5.8-.6 1.3-.3.1-.6.2-.9.2 0-.8.1-1.5.3-2.3 4.1-4.1 9.2 1.8 10.4 5.8zm-12.6-7.8c1.2-2.8 3.5-4.5 6.2-5.3-1.8 1-3.2 2.5-4.2 4.4-.8 1.6-1.2 3.3-1.2 5-.5-.1-1-.3-1.4-.5 0-1.2.1-2.4.6-3.6zm-.4 5.5c.4-.1.8-.2 1.2-.2.1 1.4.4 2.9.8 4.3-.9-1.3-1.6-2.6-2-4.1zm27.8 7c-.1-.3-.6-.2-.6.1.1 4.1.4 11.3-5.4 11.4 2.6-2.8 2.1-8.7 1.7-11.8-1.2-9.5-7.1-18.7-15.8-22.9-.3-.1-.5.2-.2.4 5.6 3.5 10.1 8 12.8 14 1.5 3.3 2.4 6.9 2.6 10.5.1 1.2 0 2.3-.1 3.5-.1 1.1-.2 2.2-.5 3.3-3.8 2.7-6.8 2.8-9.1.3-.3-.2-.7.1-.4.4 1.9 2.2 5.1 5 8.2 3 .1-.1.2-.1.3-.2l.1.1c6.7.8 7.3-7.5 6.4-12.1zm-26.6-22.5c-1.9 1.4-2.9 4.8-1 6.7.2.2.7 0 .6-.3-.4-1-.8-1.8-.7-2.8.1-1.2.6-2.3 1.4-3.1.2-.2 0-.6-.3-.5zm-8.5-1.5c.6-3.7 3.9-5.7 7.6-4.8 2.9.8 4.9 3.1 6.6 5.5.2.3.8 0 .6-.3-1.8-3.5-5.1-6.6-9.4-6.4-3.2.2-5.8 2.6-5.7 5.9 0 .3.3.3.3.1zm3.6 1.7c-1.3 2.7-.6 6.6 2.3 7.9.3.1.6-.2.4-.5-2.1-1.8-3.2-4.4-2-7.1.2-.3-.4-.7-.7-.3zm12.5 36.2c-.1.2-.2.3-.3.5-.1.1 0 .2 0 .3-1.2 3.6-2.5 7-4.1 10.5-.2.5.4.8.7.4 2.3-3.2 3.9-7.5 4.5-11.5 0-.4-.7-.6-.8-.2zm-7.1-11c-1.1 1.7-2.4 3.2-3.8 4.7-.1.2.1.4.2.2 1.5-1.3 2.8-3.1 3.9-4.8.2-.2-.1-.4-.3-.1zM77.5 44.2c-1.7 1.4-3.6 2.5-5.7 3.4-.2.1 0 .3.1.3 2.3-.8 4.5-1.9 6.3-3.5 1.5.2 3.2.5 4.6.4.1 0 .1 0 .1-.1 4.1 1.4 8.1 3 11.8 5.3.2.1.3-.2.2-.3-3.6-2.6-7.6-4.7-12-5.7h-.1c-.3-.1-.7-.2-1-.2h-.1c-.9-.1-1.8-.1-2.7-.1l.6-.6c-.1.2 0 .5.2.4 2-.1 3.9 0 5.9.2.4 0 .4-.5.1-.6-1.8-.7-4.2-.7-6.1-.1-.1 0-.1.1-.1.1.3-.3.6-.6.9-1 0 .1.1.3.3.3 1 0 2 0 3.1.1 0 .1.1.1.2.1 4.5.2 8.5 1.4 12.2 4 .2.2.4-.2.2-.4-2.2-1.7-4.8-3-7.5-3.7.1-.1.1-.4-.1-.4-2.6-.8-5.3-.8-8-.5.3-.3.5-.6.7-1 2.5-.4 4.8-.2 7.3 0 .3 0 .4-.5.1-.6-2.2-.8-4.7-.7-7-.1.3-.5.6-.9.9-1.4.1-.2-.2-.5-.4-.2-1.2 2-2.8 3.7-4.5 5.2h-.3c-.2.2-.3.5-.2.7zm5.8-4.7c3.1 0 6 0 9.1.5.3 0 .4-.3.1-.5-.9-.4-1.9-.6-2.9-.8.3 0 .6 0 .9-.1.2 0 .2-.3 0-.3-1.9-.2-3.8-.2-5.7 0-.2 0-.2.3 0 .4-.5.1-1.1.2-1.6.4-.3 0-.2.4.1.4zm32.2 4.1c.9.3 2 .3 2.9.4.3 0 .4-.5.1-.6-.9-.2-2-.5-2.9-.4-.3.1-.4.5-.1.6zm-25.1-2.7c2.4.5 4.8 1.2 7 2.2.2.1.4-.2.2-.4-2.3-1.1-4.7-1.8-7.2-2.1-.1.1-.1.3 0 .3zM39.2 61.8c-.9-2.9-.1-6.8 2.9-8.2.2-.1.1-.4-.2-.4-3.2.9-4.3 4.8-3.8 7.8.5 3.2 2.8 5.6 5.8 6.5.2.1.4-.3.2-.4-2.2-1-4.2-2.8-4.9-5.3zm14.5 7.9c-1.9.7-4 .7-5.7-.6-.3-.2-.7.2-.4.4 1.7 1.5 4.3 1.9 6.2.5.2-.1.2-.4-.1-.3zm8.8-41.6c2.9.5 5.1 2.8 5.9 5.6.1.2.3.1.3 0-.4-3.1-3-5.5-6.1-5.9-.2-.1-.3.2-.1.3zM50.2 40.2c-2.3 3.5-.5 9.3 4.3 9.1.4 0 .6-.7.1-.8-1.6-.5-3-1-4-2.5-1-1.7-.9-3.8.1-5.4.3-.5-.3-.8-.5-.4zm9 25.6c-1.1 4.2-.8 8.4 1.1 12.3.1.2.4.1.3-.1-1.3-3.9-1.7-7.9-.9-12.1.1-.3-.4-.5-.5-.1zm-3.9 3.6c-.1.8-.2 1.6-.2 2.4-.1 0-.1.1-.1.2-.5 5.1.8 10.4 4.3 14.3.2.3.7-.1.5-.4-1.6-2.4-2.8-4.7-3.5-7.3.7 2 1.8 3.8 3.2 5.4.3.3.8-.1.5-.4-2.9-4.4-4.5-8.7-4.2-14.1.1-.3-.5-.4-.5-.1zm-.7 6.3c0-.2-.3-.1-.3 0 .3 4.9 2.4 9.9 6.2 13 .2.2.5-.1.3-.3-3.2-3.7-5.5-7.6-6.2-12.7zM63.2 61l1.2-1.8c.2-.3-.2-.5-.4-.2-.1.1-.1.2-.2.2.1-.2-.1-.3-.2-.4.1-.5.3-1 .5-1.4.1-.2-.3-.4-.4-.2-.4.7-.7 1.5-.9 2.3-.7 1-1.4 2-2.2 2.9-2.1 1.7-4.5 2.7-7.3 2.8-5 .1-8.9-3.4-9.7-8.3 0-.3-.5-.2-.5.1.3 4.9 3.9 8.5 8.8 9.1 1.9.2 3.7-.1 5.4-.7-1.4.9-3.1 1.6-4.9 1.9-6.1.8-11.6-4.1-9.7-10.4.1-.2-.2-.3-.3-.1-2.2 5.1 1.1 10.4 6.4 11.4 3.5.7 6.7-.3 9.3-2.2-.3.7-.5 1.3-.6 2v-.4c0-.3-.5-.3-.5 0-.4 5.3.7 10.7 3.7 15.1.2.2.5 0 .4-.2-1.9-4.2-3.1-8.3-3.5-12.8.1 0 .2 0 .2-.1.3-1.5.6-2.9 1.2-4.3.5-.4.9-.8 1.4-1.3-.8 3-.7 6.4.5 9.2.2.4.7.1.7-.3-.6-3.5-.8-6.6-.1-10.1v-.1l.9-.9c-.2 2.4.3 4.8 1.7 6.8.2.3.7.1.6-.3-1.1-2.4-1.7-4.8-1.5-7.3zm2.1-8.9s0-.1-.1-.1v-.1c2.2-1.8 3.9-3.9 5.2-6.3v.5c0 .2.3.2.3 0 .1-.4.1-.9.1-1.3 2.7-5.7 2.7-12.5-.4-18.4-.1-.2-.6-.1-.5.2 2.2 5.4 2.5 10.8.9 15.7-.3-3.6-1.8-7.1-4.2-9.8-2.4-2.6-6.1-4.6-9.1-1.8-.3.3.1.7.4.4 4.1-3.7 8.7 2.1 10.4 5.2 1.2 2.2 1.8 4.6 2 7.1-1 2.6-2.6 5.1-4.8 7.3.2-.8.3-1.7.4-2.6 0-.3-.5-.4-.5-.1-.3 2.1-1.1 3.9-2.2 5.5.1-.6.2-1.2.3-1.7 1.9-3 2.6-6.8 1.2-10.2-.1-.2-.5-.2-.4.1.8 3.2.7 6.3-.8 9.1 0-.9-.1-1.7-.3-2.5 0-1.8-.5-3.5-1.3-5.1 1.1-1 2-2.2 2.6-3.5.1-.2-.2-.4-.3-.2-.7 1.1-1.6 2.2-2.6 3.1-1.8-2.9-4.8-5.1-8.6-5.4-.2 0-.2.3 0 .3 3.7.9 6.4 3 7.9 5.7 0 0-.1.1-.2.1-2-2.4-5-4-8.2-4.2-.1-2 .7-4 2.2-5.5.1-.1 0-.2-.1-.1-1.7 1.4-2.7 3.5-2.8 5.6-1.1 0-2.2.1-3.4.4-.2.1-.1.3.1.3 1.2-.2 2.3-.3 3.3-.2.1 1.6.9 3.2 2.4 4.3 2.2 1.6 4.4 1.4 6.2.3.8 1.1 1.5 2.4 1.9 3.7.1 1.8-.2 3.7-1 5.6-2 1.5-4.1 2.7-6.4 3.2-4.5-3.5-7.2-8.9-6.4-14.8 0-.3-.6-.4-.6-.1-.9 5.8 1.3 11.8 6.1 15-1.9.2-3.8-.2-5.8-1.4-5.5-3.4-5.5-10.4-1.8-15.1.2-.3-.1-.7-.4-.4-3.5 3.1-4.4 7.8-2.9 11.8-.2-.1-.5.1-.3.3 4.4 10 17.8 9.5 22 1 .1.6.3 1.2.4 1.8 0 0-.1 0-.1.1-1.1 3.5-.8 7.4 1.4 10.4.2.3.6 0 .4-.2-1.5-3.2-2.2-6.3-1.6-9.8.9 3.2 2.5 6.3 4.9 8.4.3.3.9-.1.7-.5-2.4-3.4-4.5-6.7-5.6-11.1zm-10.2-8.5c-1.5-.9-2.4-2.3-2.6-3.8 3 .4 5.6 1.9 7.5 4-1.5.8-3.1.9-4.9-.2zm6 .3s.1 0 0 0c.1 0 .1.2.2.2l-.2-.2zm1.7 8.3c-.1.1-.2.3-.3.4-.1.1.1.3.2.2 0 .5-.1 1.1-.2 1.7-.7.8-1.5 1.5-2.4 2.1.8-.7 1.5-1.5 2-2.5.1-.1 0-.3 0-.5.3-.6.6-1.3.8-2-.1.3-.1.5-.1.6zm3.8 1.4c.7 2.3 1.7 5.1 3.5 6.8.3.3.8-.1.6-.4-.6-1-1.3-2-1.9-3-.6-1.1-1.2-2.3-1.6-3.5-.2-.4-.7-.3-.6.1zm5.6 1.3c-1.2-1.3-2.3-2.7-3.7-3.7-.3-.2-.7.2-.5.5.8 1.4 2.1 2.6 3.1 3.8 1.2 1.3 2.3 2.8 3.7 3.9.4.3 1-.1.7-.5-.9-1.4-2.2-2.7-3.3-4zm-2.8-4.7c-.1 0-.1 0 0 0 5.8-5.1 12.4-18.2 4.5-23.4-.2-.1-.5.2-.3.4 7.3 6.7-.5 18.7-6 23.5-.3.3.1.8.4.6l.9-.6c0 .1.1.2.2.2 2.6 1.6 4.7 3.7 6.8 5.9.2.3.7-.1.5-.4-1.7-2.9-4.2-4.9-7-6.2zm4.3-2.2c-.2 0-.2.4.1.4 2.9-.1 5.2.6 7.8 1.8.4.2.6-.3.3-.5-2.3-1.8-5.5-2.2-8.2-1.7zm11.3.5c2.5 1 4.8 2.2 7.1 3.7.1.1.2-.1.1-.2-2.2-1.7-4.6-2.9-7.2-3.8 0-.1-.1-.1-.1-.2-2.4-1.5-5.4-2-8.1-2.1-.3 0-.4.5-.1.5 2.8.4 5.3 1.3 7.9 2.1.2.1.3 0 .4 0zm-2.9 4c-2.9-2.4-6.7-3.5-10.4-3.5-.3 0-.3.5 0 .5h.1c-.1.1-.1.3.1.4 2.6 1 5.3 2.2 8 3 .2.1.4-.3.2-.4-2.5-1.1-5.2-2.1-7.8-3 4.1.4 7.5 2 10.8 4.4.1.1.2 0 .3 0 3.3 1.9 6.9 3.5 10.5 4.7.2.1.4-.3.2-.4-4.3-1.8-8.2-3.6-12-5.7zm-6.1-.4c-.3-.1-.5.2-.2.4 3.3 2.2 6.9 4 10.5 5.8.2.1.4-.2.2-.3-3.5-2-6.9-4.2-10.5-5.9zm.7 2.9c-.3-.1-.6.2-.3.4 1.6 1.5 3.7 2.5 5.5 3.7.2.1.4-.2.2-.4-1.7-1.2-3.4-2.7-5.4-3.7zm41.3-4.1c-5.7 1.1-12.6 3.7-17.1 7.5-.2.1 0 .3.2.2 2.8-1.2 5.4-3 8.3-4.2 2.8-1.2 5.8-2.1 8.8-3 .3-.1.1-.6-.2-.5zm-16.8 3.7c4.6-2.3 9-3.6 14-4.3.2 0 .2-.4-.1-.4-5 0-10.1 1.6-14.2 4.4-.1.1.1.5.3.3zm.1-2.7c3.9-1.9 7.8-2.9 12-3.6.2 0 .2-.4-.1-.4-4.3 0-8.5 1.5-12.2 3.7-.1.1.1.4.3.3zm.8-4c3.8-1.3 7.6-2.1 11.4-3 .2 0 .2-.4-.1-.4-3.9.5-7.8 1.7-11.4 3.2-.1.1 0 .2.1.2zm21.6 5.7c-4.2 1.9-8.4 3.9-12.7 5.5-.2.1-.2.5.1.4 4.5-1.3 8.9-3.1 12.9-5.5.2-.2-.1-.6-.3-.4zm2.4 1.6c-2.9 1.5-5.8 3.3-8.8 4.8-.3.1 0 .5.2.4 3.1-1.3 6.1-2.7 8.7-4.8.4-.2.2-.5-.1-.4zm1 3.3c-1.8 1.2-3.6 2.5-5.4 3.7-.3.2 0 .8.3.5 1.8-1.3 3.6-2.6 5.3-4 .2 0 0-.3-.2-.2zm-32.4-4.8c-.2-.1-.4.3-.2.4 1.1.9 2.5 1.8 3.8 2.5.5.2.8-.4.4-.7-1.3-.9-2.6-1.7-4-2.2zm1.1 3.3c-.2-.1-.3.2-.1.3.7.5 1.7.9 2.4 1.4.2.1.4-.2.2-.3-.7-.6-1.6-1.1-2.5-1.4zm.4-5.2c-.2 0-.4.2-.2.4.7.8 1.8 1.2 2.7 1.7.3.2.5-.3.3-.4-.9-.6-1.8-1.4-2.8-1.7zm.9-.2c.4.3.9.5 1.3.7.4.2.7-.4.3-.6-.5-.2-.9-.5-1.4-.5-.1 0-.4.2-.2.4zm1.3-2.1c.2.2.6-.1.4-.3-.2-.3-.4-.6-.6-.8-.2-.1-.5 0-.4.2.2.4.4.6.6.9zm0-2.4c-.2-.2-.4.1-.3.3.2.2.3.4.5.6.2.2.6-.1.4-.4-.2-.1-.4-.3-.6-.5zm.1-1.8-.3-.3c-.1-.1-.3 0-.2.1 0 .2 0 .3.1.5 0 .4.8.1.4-.3z" fill="#452c22" stroke-width="none" opacity="1" stroke="none"></path><path id="SvgjsPath4200" d="M60.1 51.2c.1-.2-.2-.5-.3-.3-2.2 2.4-5.5 3.7-8.7 2.6-3.6-1.2-5.3-5.4-4.5-8.9.1-.4-.5-.5-.6-.2-2.5 8.6 9.2 14.6 14.1 6.8zm-2.6 8.1c.2-.2-.1-.6-.3-.4-3.5 2.3-9.3.3-11.1-3.4-.1-.2-.5-.1-.4.2 1.5 3.9 8.4 6.9 11.8 3.6zm1.6-.1c.2-.2-.1-.6-.3-.4-2.9 1.8-6 3.6-9.3 1.6-.2-.1-.4.2-.2.4 3.2 2.2 7.2.9 9.8-1.6zm0 1.9c.1-.2-.2-.5-.4-.3-1.5 1.8-3.4 2.9-5.8 2.2-.3-.1-.4.3-.1.4 2.3.7 5.3-.1 6.3-2.3zm-2.3-24c3.4-1.5 6.2 1.2 7 4.3.6 2.1.9 5.8-.7 7.5-.2.2.1.6.3.4 1.3-.8 1.7-2.6 1.7-4.5 2.4-4.1-.9-8-4.2-10.3-.2-.2-.5.2-.2.4 2.9 2.2 5.4 5.3 4.3 8.9-.1-1.6-.6-3.2-1-4.2-1.3-3-4.5-4.7-7.5-3.1-.2.3 0 .7.3.6zm2.9-4.1c7 2.1 9.7 8.9 7.3 15.5-.1.3.3.5.5.2 3.4-6.7-.7-14.3-7.7-16.1-.3-.1-.4.3-.1.4zm7.2-6.7c3.4 1.4 3.9 5 4.2 8.3 0 .3.4.3.5 0 .3-3.6-.9-7.6-4.6-8.8-.3-.1-.4.4-.1.5zM60 27.4c2.5-1.1 4.3.8 6 2.2.2.2.6 0 .4-.3-1.5-2.1-4.2-3.6-6.7-2.3-.2.1 0 .5.3.4zm16.5-1.1c-.1-.2-.3 0-.2.1 4.9 8.5 1.8 18.2-6.6 22.8-.2.1 0 .3.2.3 9-4.1 11.8-14.7 6.6-23.2zm1.3 16.1c-.1.2.2.4.3.2 1.9-1.9 3.6-4.4 3.1-7.2 0-.2-.3-.2-.3 0 .2 2.9-1.5 4.9-3.1 7zm-22.5 4.7c.2 0 .3-.2.1-.3-2.2-1.1-4.8-3-3.9-5.8.1-.3-.3-.4-.4-.1-1 2.9 1.3 5.6 4.2 6.2zm-1.1 18.2c-4.5.5-10.9-.7-10.8-6.5 0-.2-.3-.2-.3 0-.4 6.2 6.3 8 11.2 6.9.2-.1.2-.4-.1-.4zm14.7-12.2c-.2-.2-.5 0-.4.2 1.4 2.5 2.9 5.2 5.1 7.1.2.2.5 0 .3-.3-1.6-2.3-3.5-4.5-5-7zm.4 3.1c-.1-.2-.5 0-.3.2 1.3 2.1 2.5 4.2 4 6.1.1.2.4 0 .3-.2-1.2-2.1-2.6-4.1-4-6.1zm-2.8 3.1c-.2-.2-.5 0-.3.2 1.2 2 2.2 4.3 3.7 6.1.2.2.5-.1.4-.3-1-2.1-2.5-4.1-3.8-6zm-2.9 3.5c.5 2.1 1.3 4.4 2.6 6.1.2.2.6.1.5-.2-.8-2-1.9-3.9-2.7-6-.1-.2-.4-.1-.4.1zm-.4 2.1c.5 1.8 1.1 3.7 2.1 5.2.1.2.5.1.4-.2-.6-1.8-1.5-3.4-2.1-5.2-.1-.2-.5 0-.4.2zm-1.5 2.9c.3 2.4.6 5.1 1.6 7.3.1.2.5.1.4-.2-.5-2.4-1.3-4.7-1.7-7.2 0-.2-.4-.1-.3.1zm-1.5 2.9c.4 1.9.8 3.9 1.8 5.5.1.2.5.1.5-.2-.6-1.8-1.4-3.6-1.9-5.4-.1-.3-.4-.2-.4.1zm-.6 4c0-.2-.4-.1-.4.1.2 1.6.6 3.5 1.6 4.8.1.2.3 0 .3-.2-.2-.8-.7-1.5-.9-2.3l-.6-2.4zm-.8 5.2c-.1-.2-.4-.1-.3.1.3 1.1.8 2.3 1.7 3.2.1.1.3 0 .2-.2-.6-1.1-1.2-2-1.6-3.1zm25.6-27.4c-.3-.1-.4.3-.1.4 3.1 1.2 6.1 2.9 9.2 4 .2.1.3-.2.2-.4-2.7-1.8-6.2-2.9-9.3-4zm4-.9c-.2-.1-.5.2-.2.4 1.3.7 2.7 1.5 4 2.3-2.2-1.2-4.7-2.1-7.1-3.1-.2-.1-.4.3-.2.5 2.5 1.1 5 2.5 7.6 3.3.2.1.4-.2.2-.4.7.4 1.5.8 2.2 1.1.2.1.6-.2.3-.4-1.9-1.7-4.4-2.7-6.8-3.7zm-.4-3.7c-.3-.1-.6.3-.3.5 2.8 1.3 5.4 3 8.1 4.5.2.1.4-.2.2-.3-2.3-2-5.1-3.4-8-4.7zm2.5-.9c-.2-.1-.4.2-.2.3 2 1.2 4 2.5 6.1 3.5.2.1.3-.1.1-.2-1.9-1.4-4-2.4-6-3.6zm1.8.1c1.3.6 2.5 1.4 3.7 2.2.1.1.2-.1.1-.2-1.1-1-2.4-1.7-3.7-2.3-.2 0-.3.2-.1.3zm3.9-.5c-1.6-1-3.4-1.7-5.2-2.3-.2-.1-.3.3-.1.3 1.8.7 3.4 1.5 5.2 2.2.2.2.3-.1.1-.2zm-4.1-4.2c-.2 0-.3.2-.1.3 1.8.5 3.2 1.5 4.8 2.4.2.1.4-.2.3-.3-1.4-1.3-3.3-2-5-2.4zm3.7.4c.1 0 .2-.1.1-.2-.9-.5-2-.9-3-1.2-.2 0-.2.2-.1.2 1.1.4 2 .9 3 1.2zm-5.6-3.5c-.3 0-.4.3-.1.4 2.6.5 5 1.4 7.4 2.4.2.1.3-.1.1-.2-2.3-1.4-4.8-2.1-7.4-2.6zm3 .4c.7.2 1.3.4 1.9.7.2.1.3-.2.2-.3-.6-.4-1.2-.6-1.9-.8-.4-.1-.5.3-.2.4zm-5.4 17.5c-2.2-1.1-4.5-2.1-6.7-3.2-.3-.2-.6.3-.3.5 2.2 1.2 4.5 2.3 6.9 3.1.2 0 .3-.3.1-.4zM75 52.6c-.2-.1-.4.2-.2.3 1.7 1.5 3.6 2.8 5.7 3.7.3.1.5-.2.2-.4-2-1.2-3.9-2.3-5.7-3.6zm16.2 6.9c-2.5-.4-5.3.5-6.8 2.6-2.3 3.1-.1 6.2-.1 9.5 0 .2.3.2.3 0 .3-2.3-.9-4.4-.6-6.7.5-3.8 3.9-4.8 7.1-5.1.2.1.3-.3.1-.3zm20.7-8.7c-4.6 1.5-9.3 3.9-12.4 7.7-.1.2.1.4.2.2 3.6-3.6 8-5.2 12.4-7.5.3-.1.1-.5-.2-.4zm-11 2.6c2.3-1.7 5-2.4 7.6-3.5.3-.1.2-.5-.1-.5-2.8.6-5.6 1.7-7.7 3.7-.2.2 0 .4.2.3zm8.5-7.2c-2.6.6-5.1 1.8-7.4 3-.2.1 0 .3.2.2 2.4-1.1 4.9-1.9 7.3-2.9.2 0 .1-.3-.1-.3zm.2-1.5c-3 .3-5.9 1.6-8.4 3.5-.1.1 0 .3.1.2 2.6-1.6 5.3-2.6 8.3-3.3.2-.1.2-.4 0-.4zm-8 1.3c2.4-1.3 4.9-2.1 7.4-2.9.2-.1.2-.4-.1-.4-2.6.5-5.2 1.7-7.4 3.1-.1.1 0 .2.1.2zm5.9-4.4c-2.6.6-4.9 1.8-7 3.4-.1.1 0 .3.1.2 2.2-1.4 4.5-2.4 6.9-3.2.3-.2.2-.5 0-.4zm-7.1 1.9c2.9-1.6 5.9-2.5 9.1-3.3.1 0 .1-.3 0-.3-3.2.2-6.4 1.7-9.1 3.5-.2 0-.1.1 0 .1zm.5-2.3c2.8-1.2 5.7-1.7 8.7-2 .2 0 .2-.3 0-.3-3.1 0-6.1.8-8.8 2.1-.1.1 0 .2.1.2zm20.4 10.6c-5.6 1.3-11.2 3.3-16.5 5.4-.2.1-.1.4.1.4 5.6-1.4 11.3-2.9 16.6-5 .5-.2.3-.9-.2-.8zm2.5.3c-5.1 2.2-10 4.1-15.4 5.5-.2.1-.2.4.1.4 5.4-.6 11.1-2.4 15.7-5.4.2-.2-.1-.6-.4-.5zm3.5 1.8c-3.7 2.1-7.3 3.9-11.5 4.8-.3.1-.2.6.2.5 4.2-.7 8.3-2.2 11.6-4.9.2-.2 0-.5-.3-.4zm.5 2.6c-2.5 1.4-4.7 2.8-7.4 3.8-.3.1-.2.6.1.5 2.7-.8 5.5-1.9 7.6-3.8.2-.3-.1-.7-.3-.5zm1.8 2.6c.2-.2-.1-.5-.3-.4-1 .5-1.8 1.3-2.7 2-.9.7-1.8 1.3-2.8 1.9-.2.2 0 .5.2.4 1.9-1 4.1-2.2 5.6-3.9zm3.8-.1c.2-.2-.1-.5-.3-.3-2.4 2-4.7 3.9-7.4 5.3-.3.2 0 .7.3.5 2.8-1.3 5.5-3.1 7.4-5.5zm.9 3.3c.1-.2-.1-.5-.4-.3-1.7 1.2-3.2 2.8-4.9 4.1-.3.2 0 .7.3.5 1.8-1.3 3.8-2.6 5-4.3zm.8 2.3c.2-.2-.2-.4-.4-.3-1.8 1.4-3.3 3.3-4.9 5-.2.2.1.5.3.3 1.7-1.6 3.6-3.2 5-5zm.6 2c.1-.2-.1-.5-.3-.3-1.5 1.1-2.8 2.7-4.1 4.1-.3.3.2.7.4.4 1.3-1.3 2.9-2.6 4-4.2zm.5 2.2c.1-.2-.2-.4-.3-.2-1.1.9-2 2.3-2.8 3.4-.1.2.2.4.4.2.5-.6 1-1.3 1.5-1.9.3-.5.8-1 1.2-1.5zm.3 6.1c-.4.3-.7.8-1 1.2s-.6.8-1 1.2c-.2.3.2.7.4.4.3-.4.7-.9 1-1.3.3-.4.7-.8.9-1.2.1-.3-.1-.5-.3-.3zm1.6 2c-.5.9-1 1.9-1.6 2.7-.3.4.4.7.6.3.6-.9 1.1-1.9 1.4-2.9 0-.2-.3-.3-.4-.1zm-9.9-34.1c.1-.1.1-.2.1-.4-2-3.6-3.1-7.3-.2-10.8.3-.3-.2-.8-.5-.5-1.8 1.7-2.5 4.1-2.2 6.3-.3-1.1-.4-2.3 0-3.7.1-.2-.3-.3-.3-.1-1.2 3.4.3 6.9 2.8 9.3.1.4.5.1.3-.1zm-1 1.9c.2.1.4-.2.2-.4-1.1-1.2-2.3-2.2-3.1-3.8-.9-1.8-1.4-3.8-1.4-5.8 0-.3-.4-.3-.4 0-.2 3.3 1 8.8 4.7 10zm-.2.7c.3 0 .3-.3.1-.4-3.4-1.4-6-6.5-5.2-10.1.1-.3-.3-.4-.4-.1-1 3.5 1.2 10.6 5.5 10.6zm-5.4-1.5c.2.1.4-.2.2-.3-1.2-1.4-2.3-2.7-3.1-4.4-.1-.3-.6 0-.5.3.8 1.6 1.9 3.4 3.4 4.4zm19.7 11.8c.3.2.6-.2.4-.5-3.3-3-4.8-6.8-3.2-11.2.1-.4-.5-.6-.6-.2-1.6 4.2-.6 9.3 3.4 11.9zm4.3 11.3c-5.5-.9-9-5.6-7.8-11.2.1-.3-.4-.4-.5-.1-1.2 5.4 1.9 12.1 8.2 11.9.3 0 .4-.6.1-.6zm1.8-1.6c-3.8 1.2-7.6-4.8-7.3-8.1 0-.2-.4-.3-.4-.1-.4 2.6.9 4.8 2.4 6.8 1.3 1.6 3.5 3.5 5.5 2 .4-.2.2-.7-.2-.6zm-2.6-22.2c-.4-.4-.7-.7-1.2-1-.3-.2-.6.3-.4.5 4.7 3.7 6.9 14 2.6 18.5-.2-.2-.4-.3-.6-.5-.9-.9-1.6-2-2.1-3.2-.2-.4-.8-.2-.6.2.8 2.2 2.7 4.9 5.1 5.6.3.1.6-.3.3-.5-.5-.4-1.1-.8-1.6-1.2 2.9-2.2 3.2-5.7 2.5-9.1-.4-1.9-.9-4-1.8-5.9.1 0 .1-.1.1-.2-.4-1.2-1.1-2.2-1.9-3.1-.2-.2-.3-.2-.4-.1zm-5-13.7c4.9 1.6 6.8 8.9 2.1 11.8-.2.1-.1.5.2.4 6.2-2 2.7-11.2-2.2-12.5-.2-.1-.3.2-.1.3zm-5 9.2c.3.2.7-.2.5-.5-.5-.7-1.1-1.3-1.5-2.2-.3-.9-.4-1.9-.2-2.8.1-.5-.7-.7-.8-.2-.3 2 .2 4.6 2 5.7zm19.9 9.2c-.2-.1-.4-.3-.6-.4-.6-3.3-3-6.4-5.2-8.8-.2-.3-.6.1-.4.4 1.2 1.5 2.2 3.1 3.1 4.7.6 1.1 1 2.2 1.5 3.3-.1 0-.2-.1-.4-.1-.3-.1-.5.4-.2.5.4.2.7.4 1 .6.1.1.1.3.2.4.1.2.3.1.4 0 5.6 4.1 3.8 13.7-1.8 17.4-.3.2-.1.7.3.5 6.2-2.7 7.9-13.4 2.8-17.8v-.2c-.8-5.4-3.2-11-7.8-14.1-.3-.2-.5.3-.3.5 4.7 3.3 5.8 8.2 7.4 13.1zM148 65c2.3.4 3.9-1.4 4.8-3.3 1.2-2.7 1-5.6-.1-8.3-.2-.4-.9-.1-.7.3 1.4 3.5.9 10.2-3.9 10.7-.3 0-.4.6-.1.6zm2.5 7.5c-1 .7-2.2 1-3.3.2-.2-.2-.5.1-.3.3 1.1.9 2.9 1 3.8-.2.2-.2 0-.4-.2-.3zm1.7-3.1c-.7.5-1.3 1.1-2.2 1.4-.9.3-1.9.4-2.8.1-.4-.1-.6.5-.2.6 1.8.7 4.8.4 5.7-1.6.2-.3-.2-.8-.5-.5zm6.8-6.2c-.4.9-.7 1.8-1.3 2.6-.6.9-1.7 2.1-2.9 1.7-.4-.1-.6.5-.3.6 2.6 1.1 5-2.6 5.1-4.8.1-.3-.4-.4-.6-.1zm-6.5-10.6c.3-4-1.1-8-3.4-11.3-.3-.4-.9 0-.6.4 2.2 3.4 3.1 6.9 3.6 10.9-.1.3.4.3.4 0z" fill="#634e45" stroke-width="none" opacity="1" stroke="none"></path></g><g id="svga-group-glasses-single-move" transform="matrix(1,0,0,1,0,0)"><g id="svga-group-glasses-single" transform="matrix(1,0,0,1,0,0)"></g></g></g></g></g><rect id="svga-credit-rect" width="200" height="15" x="0" y="185" fill="#ecf0f1" opacity="0.5" style="display: none;"></rect><text id="svga-credit-text" font-family="Avenir Next, Roboto, Helvetica, Arial, sans-serif" font-size="10px" text-anchor="start" font-weight="400" size="10px" anchor="start" weight="400" fill="#333333" x="33.40447998046875" y="182.60824704170227" style="display: none;"><tspan id="SvgjsTspan2896" dy="13" x="33.40447998046875">Created on AvatarMaker.com</tspan></text></g></svg>